<svg width="700" height="570" xmlns="http://www.w3.org/2000/svg">
<style>text { font-family: -apple-system, BlinkMacSystemFont, "Segoe UI", Helvetica, Arial, sans-serif; }</style>
<text x="350" y="24" text-anchor="middle" font-size="14" font-weight="bold" fill="#24292f">Commits (Last 4 Weeks)</text>
<text x="152" y="59" text-anchor="end" font-size="12" fill="#57606a">Mastra</text>
<rect x="160" y="40" width="480.0" height="28" rx="4" fill="#4caf50" opacity="0.85"/>
<text x="646.0" y="59" font-size="11" fill="#24292f">1744.0</text>
<text x="152" y="93" text-anchor="end" font-size="12" fill="#57606a">PydanticAI</text>
<rect x="160" y="74" width="179.2" height="28" rx="4" fill="#bcbe9b" opacity="0.85"/>
<text x="345.17431192660547" y="93" font-size="11" fill="#24292f">651.0</text>
<text x="152" y="127" text-anchor="end" font-size="12" fill="#57606a">Google ADK</text>
<rect x="160" y="108" width="98.5" height="28" rx="4" fill="#dac2af" opacity="0.85"/>
<text x="264.5321100917431" y="127" font-size="11" fill="#24292f">358.0</text>
<text x="152" y="161" text-anchor="end" font-size="12" fill="#57606a">Composio</text>
<rect x="160" y="142" width="72.7" height="28" rx="4" fill="#e3c4b5" opacity="0.85"/>
<text x="238.6605504587156" y="161" font-size="11" fill="#24292f">264.0</text>
<text x="152" y="195" text-anchor="end" font-size="12" fill="#57606a">OpenAI Agents SDK</text>
<rect x="160" y="176" width="57.0" height="28" rx="4" fill="#e9c5b9" opacity="0.85"/>
<text x="222.9724770642202" y="195" font-size="11" fill="#24292f">207.0</text>
<text x="152" y="229" text-anchor="end" font-size="12" fill="#57606a">Haystack</text>
<rect x="160" y="210" width="51.5" height="28" rx="4" fill="#ebc5bb" opacity="0.85"/>
<text x="217.4678899082569" y="229" font-size="11" fill="#24292f">187.0</text>
<text x="152" y="263" text-anchor="end" font-size="12" fill="#57606a">Agno</text>
<rect x="160" y="244" width="23.4" height="28" rx="4" fill="#f6c6c2" opacity="0.85"/>
<text x="189.39449541284404" y="263" font-size="11" fill="#24292f">85.0</text>
<text x="152" y="297" text-anchor="end" font-size="12" fill="#57606a">AG2</text>
<rect x="160" y="278" width="22.6" height="28" rx="4" fill="#f6c6c2" opacity="0.85"/>
<text x="188.56880733944953" y="297" font-size="11" fill="#24292f">82.0</text>
<text x="152" y="331" text-anchor="end" font-size="12" fill="#57606a">Claude Agent SDK</text>
<rect x="160" y="312" width="20.4" height="28" rx="4" fill="#f7c6c2" opacity="0.85"/>
<text x="186.36697247706422" y="331" font-size="11" fill="#24292f">74.0</text>
<text x="152" y="365" text-anchor="end" font-size="12" fill="#57606a">CrewAI</text>
<rect x="160" y="346" width="17.9" height="28" rx="4" fill="#f8c7c3" opacity="0.85"/>
<text x="183.88990825688074" y="365" font-size="11" fill="#24292f">65.0</text>
<text x="152" y="399" text-anchor="end" font-size="12" fill="#57606a">LangGraph</text>
<rect x="160" y="380" width="14.0" height="28" rx="4" fill="#f9c7c4" opacity="0.85"/>
<text x="180.03669724770643" y="399" font-size="11" fill="#24292f">51.0</text>
<text x="152" y="433" text-anchor="end" font-size="12" fill="#57606a">DSPy</text>
<rect x="160" y="414" width="13.5" height="28" rx="4" fill="#f9c7c4" opacity="0.85"/>
<text x="179.4862385321101" y="433" font-size="11" fill="#24292f">49.0</text>
<text x="152" y="467" text-anchor="end" font-size="12" fill="#57606a">BrowserUse</text>
<rect x="160" y="448" width="12.7" height="28" rx="4" fill="#fac7c4" opacity="0.85"/>
<text x="178.6605504587156" y="467" font-size="11" fill="#24292f">46.0</text>
<text x="152" y="501" text-anchor="end" font-size="12" fill="#57606a">LlamaIndex</text>
<rect x="160" y="482" width="6.1" height="28" rx="4" fill="#fcc7c6" opacity="0.85"/>
<text x="172.05504587155963" y="501" font-size="11" fill="#24292f">22.0</text>
<text x="152" y="535" text-anchor="end" font-size="12" fill="#57606a">Semantic Kernel</text>
<rect x="160" y="516" width="2.2" height="28" rx="4" fill="#fec7c7" opacity="0.85"/>
<text x="168.2018348623853" y="535" font-size="11" fill="#24292f">8.0</text>
</svg>