<svg width="700" height="570" xmlns="http://www.w3.org/2000/svg">
<style>text { font-family: -apple-system, BlinkMacSystemFont, "Segoe UI", Helvetica, Arial, sans-serif; }</style>
<text x="350" y="24" text-anchor="middle" font-size="14" font-weight="bold" fill="#24292f">Commits (Last 4 Weeks)</text>
<text x="152" y="59" text-anchor="end" font-size="12" fill="#57606a">Mastra</text>
<rect x="160" y="40" width="480.0" height="28" rx="4" fill="#4caf50" opacity="0.85"/>
<text x="646.0" y="59" font-size="11" fill="#24292f">983.0</text>
<text x="152" y="93" text-anchor="end" font-size="12" fill="#57606a">Google ADK</text>
<rect x="160" y="74" width="142.1" height="28" rx="4" fill="#cac0a4" opacity="0.85"/>
<text x="308.09562563580874" y="93" font-size="11" fill="#24292f">291.0</text>
<text x="152" y="127" text-anchor="end" font-size="12" fill="#57606a">PydanticAI</text>
<rect x="160" y="108" width="106.0" height="28" rx="4" fill="#d7c2ad" opacity="0.85"/>
<text x="271.9613428280773" y="127" font-size="11" fill="#24292f">217.0</text>
<text x="152" y="161" text-anchor="end" font-size="12" fill="#57606a">Composio</text>
<rect x="160" y="142" width="61.5" height="28" rx="4" fill="#e8c4b8" opacity="0.85"/>
<text x="227.52594099694812" y="161" font-size="11" fill="#24292f">126.0</text>
<text x="152" y="195" text-anchor="end" font-size="12" fill="#57606a">OpenAI Agents SDK</text>
<rect x="160" y="176" width="52.7" height="28" rx="4" fill="#ebc5ba" opacity="0.85"/>
<text x="218.73652085452696" y="195" font-size="11" fill="#24292f">108.0</text>
<text x="152" y="229" text-anchor="end" font-size="12" fill="#57606a">CrewAI</text>
<rect x="160" y="210" width="39.6" height="28" rx="4" fill="#f0c5be" opacity="0.85"/>
<text x="205.55239064089523" y="229" font-size="11" fill="#24292f">81.0</text>
<text x="152" y="263" text-anchor="end" font-size="12" fill="#57606a">BrowserUse</text>
<rect x="160" y="244" width="34.7" height="28" rx="4" fill="#f2c6bf" opacity="0.85"/>
<text x="200.66937945066124" y="263" font-size="11" fill="#24292f">71.0</text>
<text x="152" y="297" text-anchor="end" font-size="12" fill="#57606a">LangGraph</text>
<rect x="160" y="278" width="17.1" height="28" rx="4" fill="#f8c7c3" opacity="0.85"/>
<text x="183.0905391658189" y="297" font-size="11" fill="#24292f">35.0</text>
<text x="152" y="331" text-anchor="end" font-size="12" fill="#57606a">Claude Agent SDK</text>
<rect x="160" y="312" width="11.2" height="28" rx="4" fill="#fac7c5" opacity="0.85"/>
<text x="177.23092573753814" y="331" font-size="11" fill="#24292f">23.0</text>
<text x="152" y="365" text-anchor="end" font-size="12" fill="#57606a">DSPy</text>
<rect x="160" y="346" width="8.8" height="28" rx="4" fill="#fbc7c5" opacity="0.85"/>
<text x="174.78942014242116" y="365" font-size="11" fill="#24292f">18.0</text>
<text x="152" y="399" text-anchor="end" font-size="12" fill="#57606a">Smolagents</text>
<rect x="160" y="380" width="2.0" height="28" rx="4" fill="#fec7c7" opacity="0.85"/>
<text x="168" y="399" font-size="11" fill="#24292f">4.0</text>
<text x="152" y="433" text-anchor="end" font-size="12" fill="#57606a">LlamaIndex</text>
<rect x="160" y="414" width="2.0" height="28" rx="4" fill="#ffc8c8" opacity="0.85"/>
<text x="168" y="433" font-size="11" fill="#24292f">0.0</text>
<text x="152" y="467" text-anchor="end" font-size="12" fill="#57606a">Agno</text>
<rect x="160" y="448" width="2.0" height="28" rx="4" fill="#ffc8c8" opacity="0.85"/>
<text x="168" y="467" font-size="11" fill="#24292f">0.0</text>
<text x="152" y="501" text-anchor="end" font-size="12" fill="#57606a">Semantic Kernel</text>
<rect x="160" y="482" width="2.0" height="28" rx="4" fill="#ffc8c8" opacity="0.85"/>
<text x="168" y="501" font-size="11" fill="#24292f">0.0</text>
<text x="152" y="535" text-anchor="end" font-size="12" fill="#57606a">Haystack</text>
<rect x="160" y="516" width="2.0" height="28" rx="4" fill="#ffc8c8" opacity="0.85"/>
<text x="168" y="535" font-size="11" fill="#24292f">0.0</text>
</svg>