<svg width="700" height="570" xmlns="http://www.w3.org/2000/svg">
<style>text { font-family: -apple-system, BlinkMacSystemFont, "Segoe UI", Helvetica, Arial, sans-serif; }</style>
<text x="350" y="24" text-anchor="middle" font-size="14" font-weight="bold" fill="#24292f">Pulse Score — Top Frameworks</text>
<text x="152" y="59" text-anchor="end" font-size="12" fill="#57606a">BrowserUse</text>
<rect x="160" y="40" width="480.0" height="28" rx="4" fill="#4caf50" opacity="0.85"/>
<text x="646.0" y="59" font-size="11" fill="#24292f">89.9</text>
<text x="152" y="93" text-anchor="end" font-size="12" fill="#57606a">CrewAI</text>
<rect x="160" y="74" width="440.5" height="28" rx="4" fill="#5ab159" opacity="0.85"/>
<text x="606.4894327030033" y="93" font-size="11" fill="#24292f">82.5</text>
<text x="152" y="127" text-anchor="end" font-size="12" fill="#57606a">OpenAI Agents SDK</text>
<rect x="160" y="108" width="413.3" height="28" rx="4" fill="#64b260" opacity="0.85"/>
<text x="579.2591768631813" y="127" font-size="11" fill="#24292f">77.4</text>
<text x="152" y="161" text-anchor="end" font-size="12" fill="#57606a">Mastra</text>
<rect x="160" y="142" width="409.5" height="28" rx="4" fill="#66b261" opacity="0.85"/>
<text x="575.5216907675194" y="161" font-size="11" fill="#24292f">76.7</text>
<text x="152" y="195" text-anchor="end" font-size="12" fill="#57606a">LangGraph</text>
<rect x="160" y="176" width="397.8" height="28" rx="4" fill="#6ab364" opacity="0.85"/>
<text x="563.7753058954393" y="195" font-size="11" fill="#24292f">74.5</text>
<text x="152" y="229" text-anchor="end" font-size="12" fill="#57606a">Haystack</text>
<rect x="160" y="210" width="379.1" height="28" rx="4" fill="#71b469" opacity="0.85"/>
<text x="545.0878754171301" y="229" font-size="11" fill="#24292f">71.0</text>
<text x="152" y="263" text-anchor="end" font-size="12" fill="#57606a">Composio</text>
<rect x="160" y="244" width="364.7" height="28" rx="4" fill="#77b56c" opacity="0.85"/>
<text x="530.6718576195773" y="263" font-size="11" fill="#24292f">68.3</text>
<text x="152" y="297" text-anchor="end" font-size="12" fill="#57606a">Claude Agent SDK</text>
<rect x="160" y="278" width="364.1" height="28" rx="4" fill="#77b56c" opacity="0.85"/>
<text x="530.1379310344828" y="297" font-size="11" fill="#24292f">68.2</text>
<text x="152" y="331" text-anchor="end" font-size="12" fill="#57606a">DSPy</text>
<rect x="160" y="312" width="354.5" height="28" rx="4" fill="#7ab56f" opacity="0.85"/>
<text x="520.5272525027808" y="331" font-size="11" fill="#24292f">66.4</text>
<text x="152" y="365" text-anchor="end" font-size="12" fill="#57606a">LlamaIndex</text>
<rect x="160" y="346" width="338.0" height="28" rx="4" fill="#80b673" opacity="0.85"/>
<text x="503.97552836484977" y="365" font-size="11" fill="#24292f">63.3</text>
<text x="152" y="399" text-anchor="end" font-size="12" fill="#57606a">AG2</text>
<rect x="160" y="380" width="335.8" height="28" rx="4" fill="#81b674" opacity="0.85"/>
<text x="501.8398220244716" y="399" font-size="11" fill="#24292f">62.9</text>
<text x="152" y="433" text-anchor="end" font-size="12" fill="#57606a">Agno</text>
<rect x="160" y="414" width="320.4" height="28" rx="4" fill="#87b777" opacity="0.85"/>
<text x="486.3559510567297" y="433" font-size="11" fill="#24292f">60.0</text>
<text x="152" y="467" text-anchor="end" font-size="12" fill="#57606a">PydanticAI</text>
<rect x="160" y="448" width="293.7" height="28" rx="4" fill="#91b87e" opacity="0.85"/>
<text x="459.6596218020022" y="467" font-size="11" fill="#24292f">55.0</text>
<text x="152" y="501" text-anchor="end" font-size="12" fill="#57606a">Google ADK</text>
<rect x="160" y="482" width="289.9" height="28" rx="4" fill="#92b87f" opacity="0.85"/>
<text x="455.9221357063403" y="501" font-size="11" fill="#24292f">54.3</text>
<text x="152" y="535" text-anchor="end" font-size="12" fill="#57606a">Semantic Kernel</text>
<rect x="160" y="516" width="289.4" height="28" rx="4" fill="#93b87f" opacity="0.85"/>
<text x="455.38820912124584" y="535" font-size="11" fill="#24292f">54.2</text>
</svg>