<svg width="700" height="570" xmlns="http://www.w3.org/2000/svg">
<style>text { font-family: -apple-system, BlinkMacSystemFont, "Segoe UI", Helvetica, Arial, sans-serif; }</style>
<text x="350" y="24" text-anchor="middle" font-size="14" font-weight="bold" fill="#24292f">Pulse Score — Top Frameworks</text>
<text x="152" y="59" text-anchor="end" font-size="12" fill="#57606a">Mastra</text>
<rect x="160" y="40" width="480.0" height="28" rx="4" fill="#4caf50" opacity="0.85"/>
<text x="646.0" y="59" font-size="11" fill="#24292f">73.8</text>
<text x="152" y="93" text-anchor="end" font-size="12" fill="#57606a">PydanticAI</text>
<rect x="160" y="74" width="478.0" height="28" rx="4" fill="#4caf50" opacity="0.85"/>
<text x="644.0487804878048" y="93" font-size="11" fill="#24292f">73.5</text>
<text x="152" y="127" text-anchor="end" font-size="12" fill="#57606a">CrewAI</text>
<rect x="160" y="108" width="459.2" height="28" rx="4" fill="#53b055" opacity="0.85"/>
<text x="625.1869918699188" y="127" font-size="11" fill="#24292f">70.6</text>
<text x="152" y="161" text-anchor="end" font-size="12" fill="#57606a">OpenAI Agents SDK</text>
<rect x="160" y="142" width="459.2" height="28" rx="4" fill="#53b055" opacity="0.85"/>
<text x="625.1869918699188" y="161" font-size="11" fill="#24292f">70.6</text>
<text x="152" y="195" text-anchor="end" font-size="12" fill="#57606a">LangGraph</text>
<rect x="160" y="176" width="450.1" height="28" rx="4" fill="#57b057" opacity="0.85"/>
<text x="616.0813008130082" y="195" font-size="11" fill="#24292f">69.2</text>
<text x="152" y="229" text-anchor="end" font-size="12" fill="#57606a">BrowserUse</text>
<rect x="160" y="210" width="448.8" height="28" rx="4" fill="#57b057" opacity="0.85"/>
<text x="614.780487804878" y="229" font-size="11" fill="#24292f">69.0</text>
<text x="152" y="263" text-anchor="end" font-size="12" fill="#57606a">Claude Agent SDK</text>
<rect x="160" y="244" width="420.2" height="28" rx="4" fill="#62b25e" opacity="0.85"/>
<text x="586.1626016260162" y="263" font-size="11" fill="#24292f">64.6</text>
<text x="152" y="297" text-anchor="end" font-size="12" fill="#57606a">LlamaIndex</text>
<rect x="160" y="278" width="387.0" height="28" rx="4" fill="#6eb367" opacity="0.85"/>
<text x="552.9918699186992" y="297" font-size="11" fill="#24292f">59.5</text>
<text x="152" y="331" text-anchor="end" font-size="12" fill="#57606a">Google ADK</text>
<rect x="160" y="312" width="345.4" height="28" rx="4" fill="#7eb671" opacity="0.85"/>
<text x="511.36585365853665" y="331" font-size="11" fill="#24292f">53.1</text>
<text x="152" y="365" text-anchor="end" font-size="12" fill="#57606a">Agno</text>
<rect x="160" y="346" width="344.1" height="28" rx="4" fill="#7eb671" opacity="0.85"/>
<text x="510.0650406504065" y="365" font-size="11" fill="#24292f">52.9</text>
<text x="152" y="399" text-anchor="end" font-size="12" fill="#57606a">DSPy</text>
<rect x="160" y="380" width="338.2" height="28" rx="4" fill="#80b673" opacity="0.85"/>
<text x="504.2113821138212" y="399" font-size="11" fill="#24292f">52.0</text>
<text x="152" y="433" text-anchor="end" font-size="12" fill="#57606a">Haystack</text>
<rect x="160" y="414" width="329.1" height="28" rx="4" fill="#84b675" opacity="0.85"/>
<text x="495.1056910569106" y="433" font-size="11" fill="#24292f">50.6</text>
<text x="152" y="467" text-anchor="end" font-size="12" fill="#57606a">Semantic Kernel</text>
<rect x="160" y="448" width="322.6" height="28" rx="4" fill="#86b777" opacity="0.85"/>
<text x="488.6016260162602" y="467" font-size="11" fill="#24292f">49.6</text>
<text x="152" y="501" text-anchor="end" font-size="12" fill="#57606a">AG2</text>
<rect x="160" y="482" width="308.3" height="28" rx="4" fill="#8cb77a" opacity="0.85"/>
<text x="474.2926829268293" y="501" font-size="11" fill="#24292f">47.4</text>
<text x="152" y="535" text-anchor="end" font-size="12" fill="#57606a">Letta</text>
<rect x="160" y="516" width="301.8" height="28" rx="4" fill="#8eb87c" opacity="0.85"/>
<text x="467.7886178861788" y="535" font-size="11" fill="#24292f">46.4</text>
</svg>