<svg width="700" height="570" xmlns="http://www.w3.org/2000/svg">
<style>text { font-family: -apple-system, BlinkMacSystemFont, "Segoe UI", Helvetica, Arial, sans-serif; }</style>
<text x="350" y="24" text-anchor="middle" font-size="14" font-weight="bold" fill="#24292f">Pulse Score — Top Frameworks</text>
<text x="152" y="59" text-anchor="end" font-size="12" fill="#57606a">BrowserUse</text>
<rect x="160" y="40" width="480.0" height="28" rx="4" fill="#4caf50" opacity="0.85"/>
<text x="646.0" y="59" font-size="11" fill="#24292f">88.9</text>
<text x="152" y="93" text-anchor="end" font-size="12" fill="#57606a">CrewAI</text>
<rect x="160" y="74" width="435.2" height="28" rx="4" fill="#5cb15b" opacity="0.85"/>
<text x="601.185601799775" y="93" font-size="11" fill="#24292f">80.6</text>
<text x="152" y="127" text-anchor="end" font-size="12" fill="#57606a">Mastra</text>
<rect x="160" y="108" width="414.7" height="28" rx="4" fill="#64b260" opacity="0.85"/>
<text x="580.6681664791901" y="127" font-size="11" fill="#24292f">76.8</text>
<text x="152" y="161" text-anchor="end" font-size="12" fill="#57606a">OpenAI Agents SDK</text>
<rect x="160" y="142" width="413.6" height="28" rx="4" fill="#64b260" opacity="0.85"/>
<text x="579.5883014623172" y="161" font-size="11" fill="#24292f">76.6</text>
<text x="152" y="195" text-anchor="end" font-size="12" fill="#57606a">PydanticAI</text>
<rect x="160" y="176" width="408.2" height="28" rx="4" fill="#66b261" opacity="0.85"/>
<text x="574.1889763779527" y="195" font-size="11" fill="#24292f">75.6</text>
<text x="152" y="229" text-anchor="end" font-size="12" fill="#57606a">LangGraph</text>
<rect x="160" y="210" width="407.6" height="28" rx="4" fill="#66b262" opacity="0.85"/>
<text x="573.6490438695163" y="229" font-size="11" fill="#24292f">75.5</text>
<text x="152" y="263" text-anchor="end" font-size="12" fill="#57606a">Google ADK</text>
<rect x="160" y="244" width="397.4" height="28" rx="4" fill="#6ab364" opacity="0.85"/>
<text x="563.3903262092238" y="263" font-size="11" fill="#24292f">73.6</text>
<text x="152" y="297" text-anchor="end" font-size="12" fill="#57606a">DSPy</text>
<rect x="160" y="278" width="391.5" height="28" rx="4" fill="#6db366" opacity="0.85"/>
<text x="557.451068616423" y="297" font-size="11" fill="#24292f">72.5</text>
<text x="152" y="331" text-anchor="end" font-size="12" fill="#57606a">Haystack</text>
<rect x="160" y="312" width="374.2" height="28" rx="4" fill="#73b46a" opacity="0.85"/>
<text x="540.1732283464567" y="331" font-size="11" fill="#24292f">69.3</text>
<text x="152" y="365" text-anchor="end" font-size="12" fill="#57606a">Claude Agent SDK</text>
<rect x="160" y="346" width="370.9" height="28" rx="4" fill="#74b46b" opacity="0.85"/>
<text x="536.933633295838" y="365" font-size="11" fill="#24292f">68.7</text>
<text x="152" y="399" text-anchor="end" font-size="12" fill="#57606a">Composio</text>
<rect x="160" y="380" width="366.6" height="28" rx="4" fill="#76b46c" opacity="0.85"/>
<text x="532.6141732283464" y="399" font-size="11" fill="#24292f">67.9</text>
<text x="152" y="433" text-anchor="end" font-size="12" fill="#57606a">Agno</text>
<rect x="160" y="414" width="356.4" height="28" rx="4" fill="#7ab56e" opacity="0.85"/>
<text x="522.3554555680539" y="433" font-size="11" fill="#24292f">66.0</text>
<text x="152" y="467" text-anchor="end" font-size="12" fill="#57606a">LlamaIndex</text>
<rect x="160" y="448" width="341.2" height="28" rx="4" fill="#7fb672" opacity="0.85"/>
<text x="507.2373453318335" y="467" font-size="11" fill="#24292f">63.2</text>
<text x="152" y="501" text-anchor="end" font-size="12" fill="#57606a">AG2</text>
<rect x="160" y="482" width="340.2" height="28" rx="4" fill="#80b672" opacity="0.85"/>
<text x="506.1574803149606" y="501" font-size="11" fill="#24292f">63.0</text>
<text x="152" y="535" text-anchor="end" font-size="12" fill="#57606a">Semantic Kernel</text>
<rect x="160" y="516" width="292.1" height="28" rx="4" fill="#92b87e" opacity="0.85"/>
<text x="458.10348706411696" y="535" font-size="11" fill="#24292f">54.1</text>
</svg>