<svg width="700" height="570" xmlns="http://www.w3.org/2000/svg">
<style>text { font-family: -apple-system, BlinkMacSystemFont, "Segoe UI", Helvetica, Arial, sans-serif; }</style>
<text x="350" y="24" text-anchor="middle" font-size="14" font-weight="bold" fill="#24292f">Pulse Score — Top Frameworks</text>
<text x="152" y="59" text-anchor="end" font-size="12" fill="#57606a">BrowserUse</text>
<rect x="160" y="40" width="480.0" height="28" rx="4" fill="#4caf50" opacity="0.85"/>
<text x="646.0" y="59" font-size="11" fill="#24292f">89.0</text>
<text x="152" y="93" text-anchor="end" font-size="12" fill="#57606a">CrewAI</text>
<rect x="160" y="74" width="441.2" height="28" rx="4" fill="#5ab159" opacity="0.85"/>
<text x="607.1685393258426" y="93" font-size="11" fill="#24292f">81.8</text>
<text x="152" y="127" text-anchor="end" font-size="12" fill="#57606a">Mastra</text>
<rect x="160" y="108" width="418.0" height="28" rx="4" fill="#63b25f" opacity="0.85"/>
<text x="583.9775280898876" y="127" font-size="11" fill="#24292f">77.5</text>
<text x="152" y="161" text-anchor="end" font-size="12" fill="#57606a">LangGraph</text>
<rect x="160" y="142" width="407.7" height="28" rx="4" fill="#66b262" opacity="0.85"/>
<text x="573.7303370786517" y="161" font-size="11" fill="#24292f">75.6</text>
<text x="152" y="195" text-anchor="end" font-size="12" fill="#57606a">Haystack</text>
<rect x="160" y="176" width="375.9" height="28" rx="4" fill="#72b46a" opacity="0.85"/>
<text x="541.9101123595506" y="195" font-size="11" fill="#24292f">69.7</text>
<text x="152" y="229" text-anchor="end" font-size="12" fill="#57606a">Claude Agent SDK</text>
<rect x="160" y="210" width="369.4" height="28" rx="4" fill="#75b46b" opacity="0.85"/>
<text x="535.4382022471909" y="229" font-size="11" fill="#24292f">68.5</text>
<text x="152" y="263" text-anchor="end" font-size="12" fill="#57606a">Composio</text>
<rect x="160" y="244" width="366.7" height="28" rx="4" fill="#76b46c" opacity="0.85"/>
<text x="532.7415730337079" y="263" font-size="11" fill="#24292f">68.0</text>
<text x="152" y="297" text-anchor="end" font-size="12" fill="#57606a">Agno</text>
<rect x="160" y="278" width="355.4" height="28" rx="4" fill="#7ab56f" opacity="0.85"/>
<text x="521.4157303370787" y="297" font-size="11" fill="#24292f">65.9</text>
<text x="152" y="331" text-anchor="end" font-size="12" fill="#57606a">DSPy</text>
<rect x="160" y="312" width="350.0" height="28" rx="4" fill="#7cb570" opacity="0.85"/>
<text x="516.0224719101125" y="331" font-size="11" fill="#24292f">64.9</text>
<text x="152" y="365" text-anchor="end" font-size="12" fill="#57606a">LlamaIndex</text>
<rect x="160" y="346" width="337.6" height="28" rx="4" fill="#81b673" opacity="0.85"/>
<text x="503.6179775280899" y="365" font-size="11" fill="#24292f">62.6</text>
<text x="152" y="399" text-anchor="end" font-size="12" fill="#57606a">OpenAI Agents SDK</text>
<rect x="160" y="380" width="304.2" height="28" rx="4" fill="#8db87b" opacity="0.85"/>
<text x="470.17977528089887" y="399" font-size="11" fill="#24292f">56.4</text>
<text x="152" y="433" text-anchor="end" font-size="12" fill="#57606a">PydanticAI</text>
<rect x="160" y="414" width="301.5" height="28" rx="4" fill="#8eb87c" opacity="0.85"/>
<text x="467.4831460674157" y="433" font-size="11" fill="#24292f">55.9</text>
<text x="152" y="467" text-anchor="end" font-size="12" fill="#57606a">Semantic Kernel</text>
<rect x="160" y="448" width="291.8" height="28" rx="4" fill="#92b87f" opacity="0.85"/>
<text x="457.7752808988764" y="467" font-size="11" fill="#24292f">54.1</text>
<text x="152" y="501" text-anchor="end" font-size="12" fill="#57606a">Google ADK</text>
<rect x="160" y="482" width="288.5" height="28" rx="4" fill="#93b87f" opacity="0.85"/>
<text x="454.53932584269666" y="501" font-size="11" fill="#24292f">53.5</text>
<text x="152" y="535" text-anchor="end" font-size="12" fill="#57606a">AG2</text>
<rect x="160" y="516" width="265.3" height="28" rx="4" fill="#9cba85" opacity="0.85"/>
<text x="431.34831460674155" y="535" font-size="11" fill="#24292f">49.2</text>
</svg>