<svg width="700" height="570" xmlns="http://www.w3.org/2000/svg">
<style>text { font-family: -apple-system, BlinkMacSystemFont, "Segoe UI", Helvetica, Arial, sans-serif; }</style>
<text x="350" y="24" text-anchor="middle" font-size="14" font-weight="bold" fill="#24292f">Pulse Score — Top Frameworks</text>
<text x="152" y="59" text-anchor="end" font-size="12" fill="#57606a">Mastra</text>
<rect x="160" y="40" width="480.0" height="28" rx="4" fill="#4caf50" opacity="0.85"/>
<text x="646.0" y="59" font-size="11" fill="#24292f">75.0</text>
<text x="152" y="93" text-anchor="end" font-size="12" fill="#57606a">OpenAI Agents SDK</text>
<rect x="160" y="74" width="452.5" height="28" rx="4" fill="#56b056" opacity="0.85"/>
<text x="618.48" y="93" font-size="11" fill="#24292f">70.7</text>
<text x="152" y="127" text-anchor="end" font-size="12" fill="#57606a">CrewAI</text>
<rect x="160" y="108" width="448.6" height="28" rx="4" fill="#57b057" opacity="0.85"/>
<text x="614.64" y="127" font-size="11" fill="#24292f">70.1</text>
<text x="152" y="161" text-anchor="end" font-size="12" fill="#57606a">BrowserUse</text>
<rect x="160" y="142" width="444.2" height="28" rx="4" fill="#59b058" opacity="0.85"/>
<text x="610.1600000000001" y="161" font-size="11" fill="#24292f">69.4</text>
<text x="152" y="195" text-anchor="end" font-size="12" fill="#57606a">LangGraph</text>
<rect x="160" y="176" width="442.9" height="28" rx="4" fill="#59b059" opacity="0.85"/>
<text x="608.8800000000001" y="195" font-size="11" fill="#24292f">69.2</text>
<text x="152" y="229" text-anchor="end" font-size="12" fill="#57606a">Claude Agent SDK</text>
<rect x="160" y="210" width="412.8" height="28" rx="4" fill="#65b260" opacity="0.85"/>
<text x="578.8" y="229" font-size="11" fill="#24292f">64.5</text>
<text x="152" y="263" text-anchor="end" font-size="12" fill="#57606a">LlamaIndex</text>
<rect x="160" y="244" width="362.9" height="28" rx="4" fill="#77b56d" opacity="0.85"/>
<text x="528.88" y="263" font-size="11" fill="#24292f">56.7</text>
<text x="152" y="297" text-anchor="end" font-size="12" fill="#57606a">Google ADK</text>
<rect x="160" y="278" width="342.4" height="28" rx="4" fill="#7fb672" opacity="0.85"/>
<text x="508.40000000000003" y="297" font-size="11" fill="#24292f">53.5</text>
<text x="152" y="331" text-anchor="end" font-size="12" fill="#57606a">Agno</text>
<rect x="160" y="312" width="341.8" height="28" rx="4" fill="#7fb672" opacity="0.85"/>
<text x="507.76" y="331" font-size="11" fill="#24292f">53.4</text>
<text x="152" y="365" text-anchor="end" font-size="12" fill="#57606a">PydanticAI</text>
<rect x="160" y="346" width="340.5" height="28" rx="4" fill="#80b672" opacity="0.85"/>
<text x="506.48" y="365" font-size="11" fill="#24292f">53.2</text>
<text x="152" y="399" text-anchor="end" font-size="12" fill="#57606a">Semantic Kernel</text>
<rect x="160" y="380" width="318.7" height="28" rx="4" fill="#88b778" opacity="0.85"/>
<text x="484.71999999999997" y="399" font-size="11" fill="#24292f">49.8</text>
<text x="152" y="433" text-anchor="end" font-size="12" fill="#57606a">Haystack</text>
<rect x="160" y="414" width="309.8" height="28" rx="4" fill="#8bb77a" opacity="0.85"/>
<text x="475.76" y="433" font-size="11" fill="#24292f">48.4</text>
<text x="152" y="467" text-anchor="end" font-size="12" fill="#57606a">AG2</text>
<rect x="160" y="448" width="305.3" height="28" rx="4" fill="#8db87b" opacity="0.85"/>
<text x="471.28000000000003" y="467" font-size="11" fill="#24292f">47.7</text>
<text x="152" y="501" text-anchor="end" font-size="12" fill="#57606a">DSPy</text>
<rect x="160" y="482" width="298.9" height="28" rx="4" fill="#8fb87d" opacity="0.85"/>
<text x="464.88" y="501" font-size="11" fill="#24292f">46.7</text>
<text x="152" y="535" text-anchor="end" font-size="12" fill="#57606a">Letta</text>
<rect x="160" y="516" width="294.4" height="28" rx="4" fill="#91b87e" opacity="0.85"/>
<text x="460.4" y="535" font-size="11" fill="#24292f">46.0</text>
</svg>