<svg width="700" height="570" xmlns="http://www.w3.org/2000/svg">
<style>text { font-family: -apple-system, BlinkMacSystemFont, "Segoe UI", Helvetica, Arial, sans-serif; }</style>
<text x="350" y="24" text-anchor="middle" font-size="14" font-weight="bold" fill="#24292f">Pulse Score — Top Frameworks</text>
<text x="152" y="59" text-anchor="end" font-size="12" fill="#57606a">BrowserUse</text>
<rect x="160" y="40" width="480.0" height="28" rx="4" fill="#4caf50" opacity="0.85"/>
<text x="646.0" y="59" font-size="11" fill="#24292f">89.8</text>
<text x="152" y="93" text-anchor="end" font-size="12" fill="#57606a">Claude Agent SDK</text>
<rect x="160" y="74" width="432.4" height="28" rx="4" fill="#5db15b" opacity="0.85"/>
<text x="598.4276169265033" y="93" font-size="11" fill="#24292f">80.9</text>
<text x="152" y="127" text-anchor="end" font-size="12" fill="#57606a">Mastra</text>
<rect x="160" y="108" width="425.5" height="28" rx="4" fill="#60b15d" opacity="0.85"/>
<text x="591.478841870824" y="127" font-size="11" fill="#24292f">79.6</text>
<text x="152" y="161" text-anchor="end" font-size="12" fill="#57606a">CrewAI</text>
<rect x="160" y="142" width="423.9" height="28" rx="4" fill="#60b15e" opacity="0.85"/>
<text x="589.8752783964364" y="161" font-size="11" fill="#24292f">79.3</text>
<text x="152" y="195" text-anchor="end" font-size="12" fill="#57606a">OpenAI Agents SDK</text>
<rect x="160" y="176" width="402.5" height="28" rx="4" fill="#68b363" opacity="0.85"/>
<text x="568.4944320712696" y="195" font-size="11" fill="#24292f">75.3</text>
<text x="152" y="229" text-anchor="end" font-size="12" fill="#57606a">PydanticAI</text>
<rect x="160" y="210" width="398.8" height="28" rx="4" fill="#6ab364" opacity="0.85"/>
<text x="564.7527839643653" y="229" font-size="11" fill="#24292f">74.6</text>
<text x="152" y="263" text-anchor="end" font-size="12" fill="#57606a">Google ADK</text>
<rect x="160" y="244" width="397.7" height="28" rx="4" fill="#6ab364" opacity="0.85"/>
<text x="563.6837416481069" y="263" font-size="11" fill="#24292f">74.4</text>
<text x="152" y="297" text-anchor="end" font-size="12" fill="#57606a">Haystack</text>
<rect x="160" y="278" width="378.4" height="28" rx="4" fill="#71b469" opacity="0.85"/>
<text x="544.4409799554566" y="297" font-size="11" fill="#24292f">70.8</text>
<text x="152" y="331" text-anchor="end" font-size="12" fill="#57606a">LangGraph</text>
<rect x="160" y="312" width="369.9" height="28" rx="4" fill="#75b46b" opacity="0.85"/>
<text x="535.8886414253898" y="331" font-size="11" fill="#24292f">69.2</text>
<text x="152" y="365" text-anchor="end" font-size="12" fill="#57606a">Agno</text>
<rect x="160" y="346" width="367.2" height="28" rx="4" fill="#76b46c" opacity="0.85"/>
<text x="533.2160356347439" y="365" font-size="11" fill="#24292f">68.7</text>
<text x="152" y="399" text-anchor="end" font-size="12" fill="#57606a">Composio</text>
<rect x="160" y="380" width="358.1" height="28" rx="4" fill="#79b56e" opacity="0.85"/>
<text x="524.1291759465479" y="399" font-size="11" fill="#24292f">67.0</text>
<text x="152" y="433" text-anchor="end" font-size="12" fill="#57606a">DSPy</text>
<rect x="160" y="414" width="324.5" height="28" rx="4" fill="#86b776" opacity="0.85"/>
<text x="490.45434298440983" y="433" font-size="11" fill="#24292f">60.7</text>
<text x="152" y="467" text-anchor="end" font-size="12" fill="#57606a">LlamaIndex</text>
<rect x="160" y="448" width="320.7" height="28" rx="4" fill="#87b777" opacity="0.85"/>
<text x="486.71269487750556" y="467" font-size="11" fill="#24292f">60.0</text>
<text x="152" y="501" text-anchor="end" font-size="12" fill="#57606a">AG2</text>
<rect x="160" y="482" width="309.5" height="28" rx="4" fill="#8bb77a" opacity="0.85"/>
<text x="475.4877505567929" y="501" font-size="11" fill="#24292f">57.9</text>
<text x="152" y="535" text-anchor="end" font-size="12" fill="#57606a">Semantic Kernel</text>
<rect x="160" y="516" width="287.6" height="28" rx="4" fill="#93b980" opacity="0.85"/>
<text x="453.57238307349667" y="535" font-size="11" fill="#24292f">53.8</text>
</svg>