<svg width="700" height="570" xmlns="http://www.w3.org/2000/svg">
<style>text { font-family: -apple-system, BlinkMacSystemFont, "Segoe UI", Helvetica, Arial, sans-serif; }</style>
<text x="350" y="24" text-anchor="middle" font-size="14" font-weight="bold" fill="#24292f">Pulse Score — Top Frameworks</text>
<text x="152" y="59" text-anchor="end" font-size="12" fill="#57606a">BrowserUse</text>
<rect x="160" y="40" width="480.0" height="28" rx="4" fill="#4caf50" opacity="0.85"/>
<text x="646.0" y="59" font-size="11" fill="#24292f">84.1</text>
<text x="152" y="93" text-anchor="end" font-size="12" fill="#57606a">CrewAI</text>
<rect x="160" y="74" width="454.9" height="28" rx="4" fill="#55b056" opacity="0.85"/>
<text x="620.8870392390013" y="93" font-size="11" fill="#24292f">79.7</text>
<text x="152" y="127" text-anchor="end" font-size="12" fill="#57606a">Mastra</text>
<rect x="160" y="108" width="452.6" height="28" rx="4" fill="#56b056" opacity="0.85"/>
<text x="618.6040428061831" y="127" font-size="11" fill="#24292f">79.3</text>
<text x="152" y="161" text-anchor="end" font-size="12" fill="#57606a">PydanticAI</text>
<rect x="160" y="142" width="438.9" height="28" rx="4" fill="#5bb15a" opacity="0.85"/>
<text x="604.9060642092747" y="161" font-size="11" fill="#24292f">76.9</text>
<text x="152" y="195" text-anchor="end" font-size="12" fill="#57606a">Google ADK</text>
<rect x="160" y="176" width="437.8" height="28" rx="4" fill="#5bb15a" opacity="0.85"/>
<text x="603.7645659928658" y="195" font-size="11" fill="#24292f">76.7</text>
<text x="152" y="229" text-anchor="end" font-size="12" fill="#57606a">OpenAI Agents SDK</text>
<rect x="160" y="210" width="429.8" height="28" rx="4" fill="#5eb15c" opacity="0.85"/>
<text x="595.7740784780024" y="229" font-size="11" fill="#24292f">75.3</text>
<text x="152" y="263" text-anchor="end" font-size="12" fill="#57606a">Agno</text>
<rect x="160" y="244" width="424.6" height="28" rx="4" fill="#60b15d" opacity="0.85"/>
<text x="590.6373365041618" y="263" font-size="11" fill="#24292f">74.4</text>
<text x="152" y="297" text-anchor="end" font-size="12" fill="#57606a">LangGraph</text>
<rect x="160" y="278" width="413.8" height="28" rx="4" fill="#64b260" opacity="0.85"/>
<text x="579.7931034482758" y="297" font-size="11" fill="#24292f">72.5</text>
<text x="152" y="331" text-anchor="end" font-size="12" fill="#57606a">Claude Agent SDK</text>
<rect x="160" y="312" width="399.0" height="28" rx="4" fill="#6ab364" opacity="0.85"/>
<text x="564.9536266349585" y="331" font-size="11" fill="#24292f">69.9</text>
<text x="152" y="365" text-anchor="end" font-size="12" fill="#57606a">LlamaIndex</text>
<rect x="160" y="346" width="320.8" height="28" rx="4" fill="#87b777" opacity="0.85"/>
<text x="486.7609988109394" y="365" font-size="11" fill="#24292f">56.2</text>
<text x="152" y="399" text-anchor="end" font-size="12" fill="#57606a">Haystack</text>
<rect x="160" y="380" width="291.7" height="28" rx="4" fill="#92b87f" opacity="0.85"/>
<text x="457.65279429250893" y="399" font-size="11" fill="#24292f">51.1</text>
<text x="152" y="433" text-anchor="end" font-size="12" fill="#57606a">Semantic Kernel</text>
<rect x="160" y="414" width="285.4" height="28" rx="4" fill="#94b980" opacity="0.85"/>
<text x="451.3745541022592" y="433" font-size="11" fill="#24292f">50.0</text>
<text x="152" y="467" text-anchor="end" font-size="12" fill="#57606a">DSPy</text>
<rect x="160" y="448" width="282.5" height="28" rx="4" fill="#95b981" opacity="0.85"/>
<text x="448.52080856123666" y="467" font-size="11" fill="#24292f">49.5</text>
<text x="152" y="501" text-anchor="end" font-size="12" fill="#57606a">AG2</text>
<rect x="160" y="482" width="279.1" height="28" rx="4" fill="#96b982" opacity="0.85"/>
<text x="445.0963139120095" y="501" font-size="11" fill="#24292f">48.9</text>
<text x="152" y="535" text-anchor="end" font-size="12" fill="#57606a">Composio</text>
<rect x="160" y="516" width="264.8" height="28" rx="4" fill="#9cba85" opacity="0.85"/>
<text x="430.82758620689657" y="535" font-size="11" fill="#24292f">46.4</text>
</svg>