<svg width="700" height="570" xmlns="http://www.w3.org/2000/svg">
<style>text { font-family: -apple-system, BlinkMacSystemFont, "Segoe UI", Helvetica, Arial, sans-serif; }</style>
<text x="350" y="24" text-anchor="middle" font-size="14" font-weight="bold" fill="#24292f">Pulse Score — Top Frameworks</text>
<text x="152" y="59" text-anchor="end" font-size="12" fill="#57606a">BrowserUse</text>
<rect x="160" y="40" width="480.0" height="28" rx="4" fill="#4caf50" opacity="0.85"/>
<text x="646.0" y="59" font-size="11" fill="#24292f">90.1</text>
<text x="152" y="93" text-anchor="end" font-size="12" fill="#57606a">CrewAI</text>
<rect x="160" y="74" width="476.3" height="28" rx="4" fill="#4daf50" opacity="0.85"/>
<text x="642.2708102108768" y="93" font-size="11" fill="#24292f">89.4</text>
<text x="152" y="127" text-anchor="end" font-size="12" fill="#57606a">LangGraph</text>
<rect x="160" y="108" width="460.3" height="28" rx="4" fill="#53b054" opacity="0.85"/>
<text x="626.2885682574918" y="127" font-size="11" fill="#24292f">86.4</text>
<text x="152" y="161" text-anchor="end" font-size="12" fill="#57606a">Mastra</text>
<rect x="160" y="142" width="418.2" height="28" rx="4" fill="#63b25f" opacity="0.85"/>
<text x="584.2019977802443" y="161" font-size="11" fill="#24292f">78.5</text>
<text x="152" y="195" text-anchor="end" font-size="12" fill="#57606a">PydanticAI</text>
<rect x="160" y="176" width="392.1" height="28" rx="4" fill="#6cb365" opacity="0.85"/>
<text x="558.0976692563818" y="195" font-size="11" fill="#24292f">73.6</text>
<text x="152" y="229" text-anchor="end" font-size="12" fill="#57606a">Agno</text>
<rect x="160" y="210" width="389.4" height="28" rx="4" fill="#6db366" opacity="0.85"/>
<text x="555.433962264151" y="229" font-size="11" fill="#24292f">73.1</text>
<text x="152" y="263" text-anchor="end" font-size="12" fill="#57606a">Claude Agent SDK</text>
<rect x="160" y="244" width="385.2" height="28" rx="4" fill="#6fb367" opacity="0.85"/>
<text x="551.1720310765816" y="263" font-size="11" fill="#24292f">72.3</text>
<text x="152" y="297" text-anchor="end" font-size="12" fill="#57606a">Haystack</text>
<rect x="160" y="278" width="374.0" height="28" rx="4" fill="#73b46a" opacity="0.85"/>
<text x="539.984461709212" y="297" font-size="11" fill="#24292f">70.2</text>
<text x="152" y="331" text-anchor="end" font-size="12" fill="#57606a">Google ADK</text>
<rect x="160" y="312" width="372.9" height="28" rx="4" fill="#73b46a" opacity="0.85"/>
<text x="538.9189789123197" y="331" font-size="11" fill="#24292f">70.0</text>
<text x="152" y="365" text-anchor="end" font-size="12" fill="#57606a">AG2</text>
<rect x="160" y="346" width="336.2" height="28" rx="4" fill="#81b673" opacity="0.85"/>
<text x="502.1598224195339" y="365" font-size="11" fill="#24292f">63.1</text>
<text x="152" y="399" text-anchor="end" font-size="12" fill="#57606a">OpenAI Agents SDK</text>
<rect x="160" y="380" width="331.9" height="28" rx="4" fill="#83b675" opacity="0.85"/>
<text x="497.8978912319645" y="399" font-size="11" fill="#24292f">62.3</text>
<text x="152" y="433" text-anchor="end" font-size="12" fill="#57606a">DSPy</text>
<rect x="160" y="414" width="304.7" height="28" rx="4" fill="#8db87b" opacity="0.85"/>
<text x="470.7280799112098" y="433" font-size="11" fill="#24292f">57.2</text>
<text x="152" y="467" text-anchor="end" font-size="12" fill="#57606a">LlamaIndex</text>
<rect x="160" y="448" width="303.1" height="28" rx="4" fill="#8db87c" opacity="0.85"/>
<text x="469.1298557158713" y="467" font-size="11" fill="#24292f">56.9</text>
<text x="152" y="501" text-anchor="end" font-size="12" fill="#57606a">Composio</text>
<rect x="160" y="482" width="284.0" height="28" rx="4" fill="#95b981" opacity="0.85"/>
<text x="449.9511653718091" y="501" font-size="11" fill="#24292f">53.3</text>
<text x="152" y="535" text-anchor="end" font-size="12" fill="#57606a">Semantic Kernel</text>
<rect x="160" y="516" width="281.3" height="28" rx="4" fill="#96b981" opacity="0.85"/>
<text x="447.28745837957825" y="535" font-size="11" fill="#24292f">52.8</text>
</svg>