<svg width="700" height="570" xmlns="http://www.w3.org/2000/svg">
<style>text { font-family: -apple-system, BlinkMacSystemFont, "Segoe UI", Helvetica, Arial, sans-serif; }</style>
<text x="350" y="24" text-anchor="middle" font-size="14" font-weight="bold" fill="#24292f">Pulse Score — Top Frameworks</text>
<text x="152" y="59" text-anchor="end" font-size="12" fill="#57606a">Mastra</text>
<rect x="160" y="40" width="480.0" height="28" rx="4" fill="#4caf50" opacity="0.85"/>
<text x="646.0" y="59" font-size="11" fill="#24292f">73.4</text>
<text x="152" y="93" text-anchor="end" font-size="12" fill="#57606a">BrowserUse</text>
<rect x="160" y="74" width="456.5" height="28" rx="4" fill="#54b055" opacity="0.85"/>
<text x="622.4577656675749" y="93" font-size="11" fill="#24292f">69.8</text>
<text x="152" y="127" text-anchor="end" font-size="12" fill="#57606a">CrewAI</text>
<rect x="160" y="108" width="451.2" height="28" rx="4" fill="#56b057" opacity="0.85"/>
<text x="617.2261580381471" y="127" font-size="11" fill="#24292f">69.0</text>
<text x="152" y="161" text-anchor="end" font-size="12" fill="#57606a">LangGraph</text>
<rect x="160" y="142" width="436.2" height="28" rx="4" fill="#5cb15a" opacity="0.85"/>
<text x="602.1852861035422" y="161" font-size="11" fill="#24292f">66.7</text>
<text x="152" y="195" text-anchor="end" font-size="12" fill="#57606a">Claude Agent SDK</text>
<rect x="160" y="176" width="421.8" height="28" rx="4" fill="#61b25e" opacity="0.85"/>
<text x="587.7983651226158" y="195" font-size="11" fill="#24292f">64.5</text>
<text x="152" y="229" text-anchor="end" font-size="12" fill="#57606a">LlamaIndex</text>
<rect x="160" y="210" width="378.6" height="28" rx="4" fill="#71b469" opacity="0.85"/>
<text x="544.6376021798364" y="229" font-size="11" fill="#24292f">57.9</text>
<text x="152" y="263" text-anchor="end" font-size="12" fill="#57606a">Agno</text>
<rect x="160" y="244" width="349.9" height="28" rx="4" fill="#7cb570" opacity="0.85"/>
<text x="515.8637602179836" y="263" font-size="11" fill="#24292f">53.5</text>
<text x="152" y="297" text-anchor="end" font-size="12" fill="#57606a">Semantic Kernel</text>
<rect x="160" y="278" width="347.2" height="28" rx="4" fill="#7db571" opacity="0.85"/>
<text x="513.2479564032698" y="297" font-size="11" fill="#24292f">53.1</text>
<text x="152" y="331" text-anchor="end" font-size="12" fill="#57606a">PydanticAI</text>
<rect x="160" y="312" width="344.6" height="28" rx="4" fill="#7eb671" opacity="0.85"/>
<text x="510.63215258855587" y="331" font-size="11" fill="#24292f">52.7</text>
<text x="152" y="365" text-anchor="end" font-size="12" fill="#57606a">OpenAI Agents SDK</text>
<rect x="160" y="346" width="333.5" height="28" rx="4" fill="#82b674" opacity="0.85"/>
<text x="499.51498637602174" y="365" font-size="11" fill="#24292f">51.0</text>
<text x="152" y="399" text-anchor="end" font-size="12" fill="#57606a">Google ADK</text>
<rect x="160" y="380" width="324.4" height="28" rx="4" fill="#86b776" opacity="0.85"/>
<text x="490.35967302452315" y="399" font-size="11" fill="#24292f">49.6</text>
<text x="152" y="433" text-anchor="end" font-size="12" fill="#57606a">Haystack</text>
<rect x="160" y="414" width="320.4" height="28" rx="4" fill="#87b777" opacity="0.85"/>
<text x="486.4359673024523" y="433" font-size="11" fill="#24292f">49.0</text>
<text x="152" y="467" text-anchor="end" font-size="12" fill="#57606a">AG2</text>
<rect x="160" y="448" width="306.7" height="28" rx="4" fill="#8cb87b" opacity="0.85"/>
<text x="472.7029972752043" y="467" font-size="11" fill="#24292f">46.9</text>
<text x="152" y="501" text-anchor="end" font-size="12" fill="#57606a">AutoGen</text>
<rect x="160" y="482" width="298.9" height="28" rx="4" fill="#8fb87d" opacity="0.85"/>
<text x="464.8555858310627" y="501" font-size="11" fill="#24292f">45.7</text>
<text x="152" y="535" text-anchor="end" font-size="12" fill="#57606a">DSPy</text>
<rect x="160" y="516" width="296.2" height="28" rx="4" fill="#90b87d" opacity="0.85"/>
<text x="462.2397820163487" y="535" font-size="11" fill="#24292f">45.3</text>
</svg>