<svg width="700" height="570" xmlns="http://www.w3.org/2000/svg">
<style>text { font-family: -apple-system, BlinkMacSystemFont, "Segoe UI", Helvetica, Arial, sans-serif; }</style>
<text x="350" y="24" text-anchor="middle" font-size="14" font-weight="bold" fill="#24292f">GitHub Stars</text>
<text x="152" y="59" text-anchor="end" font-size="12" fill="#57606a">Claude Agent SDK</text>
<rect x="160" y="40" width="480.0" height="28" rx="4" fill="#4caf50" opacity="0.85"/>
<text x="646.0" y="59" font-size="11" fill="#24292f">137781.0</text>
<text x="152" y="93" text-anchor="end" font-size="12" fill="#57606a">BrowserUse</text>
<rect x="160" y="74" width="364.6" height="28" rx="4" fill="#77b56c" opacity="0.85"/>
<text x="530.5890217083632" y="93" font-size="11" fill="#24292f">104653.0</text>
<text x="152" y="127" text-anchor="end" font-size="12" fill="#57606a">AutoGen</text>
<rect x="160" y="108" width="208.0" height="28" rx="4" fill="#b1bd93" opacity="0.85"/>
<text x="374.04494088444704" y="127" font-size="11" fill="#24292f">59718.0</text>
<text x="152" y="161" text-anchor="end" font-size="12" fill="#57606a">CrewAI</text>
<rect x="160" y="142" width="193.3" height="28" rx="4" fill="#b6bd97" opacity="0.85"/>
<text x="359.29109238574256" y="161" font-size="11" fill="#24292f">55483.0</text>
<text x="152" y="195" text-anchor="end" font-size="12" fill="#57606a">LlamaIndex</text>
<rect x="160" y="176" width="177.1" height="28" rx="4" fill="#bcbe9b" opacity="0.85"/>
<text x="343.0810198793738" y="195" font-size="11" fill="#24292f">50830.0</text>
<text x="152" y="229" text-anchor="end" font-size="12" fill="#57606a">Agno</text>
<rect x="160" y="210" width="143.4" height="28" rx="4" fill="#c9c0a4" opacity="0.85"/>
<text x="309.37535654408083" y="229" font-size="11" fill="#24292f">41155.0</text>
<text x="152" y="263" text-anchor="end" font-size="12" fill="#57606a">LangGraph</text>
<rect x="160" y="244" width="129.8" height="28" rx="4" fill="#cec1a7" opacity="0.85"/>
<text x="295.78509373571103" y="263" font-size="11" fill="#24292f">37254.0</text>
<text x="152" y="297" text-anchor="end" font-size="12" fill="#57606a">DSPy</text>
<rect x="160" y="278" width="125.8" height="28" rx="4" fill="#d0c1a8" opacity="0.85"/>
<text x="291.80660613582427" y="297" font-size="11" fill="#24292f">36112.0</text>
<text x="152" y="331" text-anchor="end" font-size="12" fill="#57606a">Composio</text>
<rect x="160" y="312" width="101.8" height="28" rx="4" fill="#d9c2ae" opacity="0.85"/>
<text x="267.8137479042829" y="331" font-size="11" fill="#24292f">29225.0</text>
<text x="152" y="365" text-anchor="end" font-size="12" fill="#57606a">Smolagents</text>
<rect x="160" y="346" width="98.7" height="28" rx="4" fill="#dac2af" opacity="0.85"/>
<text x="264.7340779933372" y="365" font-size="11" fill="#24292f">28341.0</text>
<text x="152" y="399" text-anchor="end" font-size="12" fill="#57606a">Semantic Kernel</text>
<rect x="160" y="380" width="98.6" height="28" rx="4" fill="#dac2af" opacity="0.85"/>
<text x="264.6191129401006" y="399" font-size="11" fill="#24292f">28308.0</text>
<text x="152" y="433" text-anchor="end" font-size="12" fill="#57606a">OpenAI Agents SDK</text>
<rect x="160" y="414" width="97.2" height="28" rx="4" fill="#dac2af" opacity="0.85"/>
<text x="263.17682409040435" y="433" font-size="11" fill="#24292f">27894.0</text>
<text x="152" y="467" text-anchor="end" font-size="12" fill="#57606a">Mastra</text>
<rect x="160" y="448" width="91.1" height="28" rx="4" fill="#ddc3b1" opacity="0.85"/>
<text x="257.09761142682953" y="467" font-size="11" fill="#24292f">26149.0</text>
<text x="152" y="501" text-anchor="end" font-size="12" fill="#57606a">Haystack</text>
<rect x="160" y="482" width="90.2" height="28" rx="4" fill="#ddc3b1" opacity="0.85"/>
<text x="256.19182615890435" y="501" font-size="11" fill="#24292f">25889.0</text>
<text x="152" y="535" text-anchor="end" font-size="12" fill="#57606a">Letta</text>
<rect x="160" y="516" width="82.9" height="28" rx="4" fill="#e0c3b3" opacity="0.85"/>
<text x="248.8514816992183" y="535" font-size="11" fill="#24292f">23782.0</text>
</svg>