<svg width="700" height="570" xmlns="http://www.w3.org/2000/svg">
<style>text { font-family: -apple-system, BlinkMacSystemFont, "Segoe UI", Helvetica, Arial, sans-serif; }</style>
<text x="350" y="24" text-anchor="middle" font-size="14" font-weight="bold" fill="#24292f">GitHub Stars</text>
<text x="152" y="59" text-anchor="end" font-size="12" fill="#57606a">Claude Agent SDK</text>
<rect x="160" y="40" width="480.0" height="28" rx="4" fill="#4caf50" opacity="0.85"/>
<text x="646.0" y="59" font-size="11" fill="#24292f">139253.0</text>
<text x="152" y="93" text-anchor="end" font-size="12" fill="#57606a">BrowserUse</text>
<rect x="160" y="74" width="368.7" height="28" rx="4" fill="#75b46b" opacity="0.85"/>
<text x="534.6872096112832" y="93" font-size="11" fill="#24292f">106960.0</text>
<text x="152" y="127" text-anchor="end" font-size="12" fill="#57606a">AutoGen</text>
<rect x="160" y="108" width="206.9" height="28" rx="4" fill="#b1bd94" opacity="0.85"/>
<text x="372.8936396343346" y="127" font-size="11" fill="#24292f">60022.0</text>
<text x="152" y="161" text-anchor="end" font-size="12" fill="#57606a">CrewAI</text>
<rect x="160" y="142" width="193.7" height="28" rx="4" fill="#b6bd97" opacity="0.85"/>
<text x="359.74692107171836" y="161" font-size="11" fill="#24292f">56208.0</text>
<text x="152" y="195" text-anchor="end" font-size="12" fill="#57606a">LlamaIndex</text>
<rect x="160" y="176" width="176.3" height="28" rx="4" fill="#bdbe9b" opacity="0.85"/>
<text x="342.27081642765324" y="195" font-size="11" fill="#24292f">51138.0</text>
<text x="152" y="229" text-anchor="end" font-size="12" fill="#57606a">Agno</text>
<rect x="160" y="210" width="142.8" height="28" rx="4" fill="#c9c0a4" opacity="0.85"/>
<text x="308.84561194372833" y="229" font-size="11" fill="#24292f">41441.0</text>
<text x="152" y="263" text-anchor="end" font-size="12" fill="#57606a">LangGraph</text>
<rect x="160" y="244" width="131.8" height="28" rx="4" fill="#cdc1a7" opacity="0.85"/>
<text x="297.8049880433456" y="263" font-size="11" fill="#24292f">38238.0</text>
<text x="152" y="297" text-anchor="end" font-size="12" fill="#57606a">DSPy</text>
<rect x="160" y="278" width="125.5" height="28" rx="4" fill="#d0c1a8" opacity="0.85"/>
<text x="291.48325709320443" y="297" font-size="11" fill="#24292f">36404.0</text>
<text x="152" y="331" text-anchor="end" font-size="12" fill="#57606a">Composio</text>
<rect x="160" y="312" width="101.4" height="28" rx="4" fill="#d9c2ae" opacity="0.85"/>
<text x="267.3545130086964" y="331" font-size="11" fill="#24292f">29404.0</text>
<text x="152" y="365" text-anchor="end" font-size="12" fill="#57606a">Smolagents</text>
<rect x="160" y="346" width="98.4" height="28" rx="4" fill="#dac2af" opacity="0.85"/>
<text x="264.4418289013522" y="365" font-size="11" fill="#24292f">28559.0</text>
<text x="152" y="399" text-anchor="end" font-size="12" fill="#57606a">Semantic Kernel</text>
<rect x="160" y="380" width="97.8" height="28" rx="4" fill="#dac2af" opacity="0.85"/>
<text x="263.814481555155" y="399" font-size="11" fill="#24292f">28377.0</text>
<text x="152" y="433" text-anchor="end" font-size="12" fill="#57606a">OpenAI Agents SDK</text>
<rect x="160" y="414" width="97.2" height="28" rx="4" fill="#dac2af" opacity="0.85"/>
<text x="263.2181568799236" y="433" font-size="11" fill="#24292f">28204.0</text>
<text x="152" y="467" text-anchor="end" font-size="12" fill="#57606a">Mastra</text>
<rect x="160" y="448" width="91.7" height="28" rx="4" fill="#dcc3b1" opacity="0.85"/>
<text x="257.71680322865575" y="467" font-size="11" fill="#24292f">26608.0</text>
<text x="152" y="501" text-anchor="end" font-size="12" fill="#57606a">Haystack</text>
<rect x="160" y="482" width="89.7" height="28" rx="4" fill="#ddc3b1" opacity="0.85"/>
<text x="255.72101139652287" y="501" font-size="11" fill="#24292f">26029.0</text>
<text x="152" y="535" text-anchor="end" font-size="12" fill="#57606a">Letta</text>
<rect x="160" y="516" width="82.7" height="28" rx="4" fill="#e0c3b3" opacity="0.85"/>
<text x="248.65473634320267" y="535" font-size="11" fill="#24292f">23979.0</text>
</svg>