<svg width="700" height="570" xmlns="http://www.w3.org/2000/svg">
<style>text { font-family: -apple-system, BlinkMacSystemFont, "Segoe UI", Helvetica, Arial, sans-serif; }</style>
<text x="350" y="24" text-anchor="middle" font-size="14" font-weight="bold" fill="#24292f">GitHub Stars</text>
<text x="152" y="59" text-anchor="end" font-size="12" fill="#57606a">Claude Agent SDK</text>
<rect x="160" y="40" width="480.0" height="28" rx="4" fill="#4caf50" opacity="0.85"/>
<text x="646.0" y="59" font-size="11" fill="#24292f">130511.0</text>
<text x="152" y="93" text-anchor="end" font-size="12" fill="#57606a">BrowserUse</text>
<rect x="160" y="74" width="358.3" height="28" rx="4" fill="#79b56e" opacity="0.85"/>
<text x="524.2631349081687" y="93" font-size="11" fill="#24292f">97411.0</text>
<text x="152" y="127" text-anchor="end" font-size="12" fill="#57606a">AutoGen</text>
<rect x="160" y="108" width="216.0" height="28" rx="4" fill="#aebc92" opacity="0.85"/>
<text x="381.98547248890895" y="127" font-size="11" fill="#24292f">58726.0</text>
<text x="152" y="161" text-anchor="end" font-size="12" fill="#57606a">CrewAI</text>
<rect x="160" y="142" width="194.6" height="28" rx="4" fill="#b6bd97" opacity="0.85"/>
<text x="360.62083655783806" y="161" font-size="11" fill="#24292f">52917.0</text>
<text x="152" y="195" text-anchor="end" font-size="12" fill="#57606a">LlamaIndex</text>
<rect x="160" y="176" width="183.7" height="28" rx="4" fill="#babe9a" opacity="0.85"/>
<text x="349.6976193577553" y="195" font-size="11" fill="#24292f">49947.0</text>
<text x="152" y="229" text-anchor="end" font-size="12" fill="#57606a">Agno</text>
<rect x="160" y="210" width="149.1" height="28" rx="4" fill="#c7c0a2" opacity="0.85"/>
<text x="315.0963980047659" y="229" font-size="11" fill="#24292f">40539.0</text>
<text x="152" y="263" text-anchor="end" font-size="12" fill="#57606a">DSPy</text>
<rect x="160" y="244" width="128.3" height="28" rx="4" fill="#cfc1a7" opacity="0.85"/>
<text x="294.2540169027898" y="263" font-size="11" fill="#24292f">34872.0</text>
<text x="152" y="297" text-anchor="end" font-size="12" fill="#57606a">LangGraph</text>
<rect x="160" y="278" width="125.1" height="28" rx="4" fill="#d0c1a8" opacity="0.85"/>
<text x="291.10577652458414" y="297" font-size="11" fill="#24292f">34016.0</text>
<text x="152" y="331" text-anchor="end" font-size="12" fill="#57606a">Composio</text>
<rect x="160" y="312" width="105.4" height="28" rx="4" fill="#d7c2ad" opacity="0.85"/>
<text x="271.3888178007984" y="331" font-size="11" fill="#24292f">28655.0</text>
<text x="152" y="365" text-anchor="end" font-size="12" fill="#57606a">Semantic Kernel</text>
<rect x="160" y="346" width="103.2" height="28" rx="4" fill="#d8c2ae" opacity="0.85"/>
<text x="269.207852211691" y="365" font-size="11" fill="#24292f">28062.0</text>
<text x="152" y="399" text-anchor="end" font-size="12" fill="#57606a">Smolagents</text>
<rect x="160" y="380" width="102.0" height="28" rx="4" fill="#d8c2ae" opacity="0.85"/>
<text x="267.96841645531794" y="399" font-size="11" fill="#24292f">27725.0</text>
<text x="152" y="433" text-anchor="end" font-size="12" fill="#57606a">OpenAI Agents SDK</text>
<rect x="160" y="414" width="99.1" height="28" rx="4" fill="#dac2af" opacity="0.85"/>
<text x="265.0996927462053" y="433" font-size="11" fill="#24292f">26945.0</text>
<text x="152" y="467" text-anchor="end" font-size="12" fill="#57606a">Haystack</text>
<rect x="160" y="448" width="93.7" height="28" rx="4" fill="#dcc3b0" opacity="0.85"/>
<text x="259.66015125161863" y="467" font-size="11" fill="#24292f">25466.0</text>
<text x="152" y="501" text-anchor="end" font-size="12" fill="#57606a">Mastra</text>
<rect x="160" y="482" width="91.3" height="28" rx="4" fill="#dcc3b1" opacity="0.85"/>
<text x="257.2658703097823" y="501" font-size="11" fill="#24292f">24815.0</text>
<text x="152" y="535" text-anchor="end" font-size="12" fill="#57606a">Letta</text>
<rect x="160" y="516" width="85.2" height="28" rx="4" fill="#dfc3b2" opacity="0.85"/>
<text x="251.20109416064545" y="535" font-size="11" fill="#24292f">23166.0</text>
</svg>