<svg width="700" height="400" xmlns="http://www.w3.org/2000/svg">
<style>text { font-family: -apple-system, BlinkMacSystemFont, "Segoe UI", Helvetica, Arial, sans-serif; }</style>
<text x="350" y="24" text-anchor="middle" font-size="14" font-weight="bold" fill="#24292f">Star Growth Over Time</text>
<rect x="70" y="50" width="480" height="310" fill="#f6f8fa" rx="4"/>
<line x1="70" y1="50.0" x2="550" y2="50.0" stroke="#e1e4e8" stroke-width="1"/>
<text x="62" y="54.0" text-anchor="end" font-size="10" fill="#57606a">62.6k</text>
<line x1="70" y1="127.5" x2="550" y2="127.5" stroke="#e1e4e8" stroke-width="1"/>
<text x="62" y="131.5" text-anchor="end" font-size="10" fill="#57606a">50.8k</text>
<line x1="70" y1="205.0" x2="550" y2="205.0" stroke="#e1e4e8" stroke-width="1"/>
<text x="62" y="209.0" text-anchor="end" font-size="10" fill="#57606a">39.0k</text>
<line x1="70" y1="282.5" x2="550" y2="282.5" stroke="#e1e4e8" stroke-width="1"/>
<text x="62" y="286.5" text-anchor="end" font-size="10" fill="#57606a">27.2k</text>
<line x1="70" y1="360.0" x2="550" y2="360.0" stroke="#e1e4e8" stroke-width="1"/>
<text x="62" y="364.0" text-anchor="end" font-size="10" fill="#57606a">15.4k</text>
<path d="M70.0,271.6 L75.2,271.1 L80.7,270.7 L86.3,270.0 L91.6,269.3 L97.0,268.6 L102.4,268.0 L107.8,267.4 L113.0,267.1 L118.4,266.6 L124.0,266.0 L129.3,265.3 L134.7,264.3 L140.1,263.4 L145.6,262.6 L150.8,262.1 L156.2,261.4 L161.8,260.7 L167.2,259.9 L172.6,259.2 L178.0,258.4 L183.3,257.8 L188.6,257.4 L194.1,257.0 L199.6,256.6 L204.9,256.1 L215.8,255.0 L220.9,254.3 L226.4,253.7 L231.8,253.3 L237.6,252.7 L242.7,252.0 L248.1,251.4 L253.5,250.8 L258.9,250.3 L264.2,249.9 L269.6,249.5 L275.4,248.8 L280.7,248.3 L286.1,247.7 L291.5,247.1 L296.8,246.4 L302.0,246.1 L307.4,245.7 L313.2,245.1 L318.5,244.3 L323.9,243.6 L329.3,242.8 L334.7,242.3 L339.7,242.0 L345.2,241.5 L351.2,240.7 L356.4,240.2 L361.9,239.5 L367.0,238.8 L372.4,238.0 L377.5,237.7 L383.0,237.4 L388.8,236.8 L393.9,236.1 L399.4,235.5 L404.9,234.9 L410.2,234.4 L415.4,233.8 L420.9,233.2 L426.9,232.5 L432.0,231.8 L437.3,231.1 L442.6,230.4 L448.0,229.9 L453.1,229.5 L458.6,229.0 L464.6,228.4 L469.4,227.9 L474.8,227.1 L480.1,226.6 L485.5,225.9 L490.7,225.5 L496.2,225.1 L502.1,224.5 L507.1,223.8 L512.6,223.3 L517.8,222.7 L523.2,222.1 L528.5,221.7 L534.0,221.3 L539.7,220.6 L544.9,220.1 L550.0,219.5" fill="none" stroke="#4CAF50" stroke-width="2" stroke-linecap="round"/>
<rect x="562" y="60" width="12" height="12" rx="2" fill="#4CAF50"/>
<text x="578" y="70" font-size="10" fill="#24292f">LangGraph</text>
<path d="M70.0,142.5 L75.2,142.0 L80.7,141.5 L86.3,140.8 L91.6,140.2 L97.0,139.6 L102.4,139.2 L107.8,138.6 L113.0,138.2 L118.4,137.8 L124.0,137.2 L129.3,136.6 L134.7,135.9 L140.1,135.0 L145.6,134.2 L150.8,133.6 L156.2,133.0 L161.8,132.3 L167.2,131.6 L172.6,131.0 L178.0,130.4 L183.3,129.9 L188.6,129.6 L194.1,129.2 L199.6,128.8 L204.9,128.3 L215.8,127.4 L220.9,126.8 L226.4,126.2 L231.8,125.7 L237.6,125.1 L242.7,124.5 L248.1,123.9 L253.5,123.5 L258.9,123.1 L264.2,122.7 L269.6,122.3 L275.4,121.8 L280.7,121.3 L286.1,120.8 L291.5,120.3 L296.8,119.8 L302.0,119.4 L307.4,119.0 L313.2,118.4 L318.5,118.0 L323.9,117.6 L329.3,117.1 L334.7,116.7 L339.7,116.4 L345.2,116.1 L351.2,115.5 L356.4,115.1 L361.9,114.5 L367.0,114.1 L372.4,113.6 L377.5,113.4 L383.0,113.1 L388.8,112.5 L393.9,112.0 L399.4,111.5 L404.9,111.1 L410.2,110.8 L415.4,110.2 L420.9,109.4 L426.9,108.9 L432.0,108.3 L437.3,107.7 L442.6,107.0 L448.0,106.5 L453.1,106.2 L458.6,105.9 L464.6,105.4 L469.4,104.9 L474.8,104.4 L480.1,104.0 L485.5,103.6 L490.7,103.3 L496.2,103.1 L502.1,102.7 L507.1,102.2 L512.6,101.8 L517.8,101.3 L523.2,100.9 L528.5,100.5 L534.0,100.1 L539.7,99.7 L544.9,99.3 L550.0,98.8" fill="none" stroke="#2196F3" stroke-width="2" stroke-linecap="round"/>
<rect x="562" y="78" width="12" height="12" rx="2" fill="#2196F3"/>
<text x="578" y="88" font-size="10" fill="#24292f">CrewAI</text>
<path d="M70.0,87.1 L75.2,86.9 L80.7,86.7 L86.3,86.4 L91.6,86.1 L97.0,85.9 L102.4,85.6 L107.8,85.4 L113.0,85.4 L118.4,85.2 L124.0,85.0 L129.3,84.8 L134.7,84.4 L140.1,84.2 L145.6,84.0 L150.8,83.8 L156.2,83.6 L161.8,83.4 L167.2,83.1 L172.6,82.9 L178.0,82.6 L183.3,82.4 L188.6,82.2 L194.1,82.1 L199.6,82.0 L204.9,81.8 L215.8,81.4 L220.9,81.1 L226.4,80.9 L231.8,80.8 L237.6,80.5 L242.7,80.2 L248.1,80.0 L253.5,79.8 L258.9,79.7 L264.2,79.5 L269.6,79.3 L275.4,79.0 L280.7,78.8 L286.1,78.6 L291.5,78.4 L296.8,78.1 L302.0,77.9 L307.4,77.7 L313.2,77.5 L318.5,77.2 L323.9,77.0 L329.3,76.8 L334.7,76.6 L339.7,76.4 L345.2,76.3 L351.2,76.0 L356.4,75.8 L361.9,75.6 L367.0,75.4 L372.4,75.3 L377.5,75.2 L383.0,75.1 L388.8,74.9 L393.9,74.7 L399.4,74.5 L404.9,74.2 L410.2,74.0 L415.4,73.9 L420.9,73.8 L426.9,73.6 L432.0,73.4 L437.3,73.1 L442.6,73.0 L448.0,72.9 L453.1,72.8 L458.6,72.7 L464.6,72.5 L469.4,72.2 L474.8,72.0 L480.1,71.8 L485.5,71.6 L490.7,71.5 L496.2,71.4 L502.1,71.1 L507.1,70.9 L512.6,70.8 L517.8,70.6 L523.2,70.4 L528.5,70.2 L534.0,70.1 L539.7,69.9 L544.9,69.8 L550.0,69.6" fill="none" stroke="#FF9800" stroke-width="2" stroke-linecap="round"/>
<rect x="562" y="96" width="12" height="12" rx="2" fill="#FF9800"/>
<text x="578" y="106" font-size="10" fill="#24292f">AutoGen</text>
<path d="M70.0,142.6 L75.2,142.5 L80.7,142.3 L86.3,142.2 L91.6,142.0 L97.0,141.7 L102.4,141.6 L107.8,141.5 L113.0,141.4 L118.4,141.2 L124.0,141.1 L129.3,140.8 L134.7,140.5 L140.1,140.2 L145.6,140.0 L150.8,139.8 L156.2,139.5 L161.8,139.4 L167.2,139.2 L172.6,138.9 L178.0,138.8 L183.3,138.7 L188.6,138.5 L194.1,138.4 L199.6,138.3 L204.9,138.3 L215.8,137.9 L220.9,137.6 L226.4,137.5 L231.8,137.3 L237.6,137.0 L242.7,136.8 L248.1,136.7 L253.5,136.5 L258.9,136.3 L264.2,136.2 L269.6,136.1 L275.4,136.0 L280.7,135.8 L286.1,135.7 L291.5,135.5 L296.8,135.3 L307.4,135.0 L313.2,134.9 L318.5,134.7 L323.9,134.6 L329.3,134.4 L334.7,134.2 L339.7,134.1 L345.2,133.9 L351.2,133.7 L356.4,133.5 L361.9,133.4 L367.0,133.2 L372.4,133.0 L377.5,132.9 L383.0,132.8 L388.8,132.6 L393.9,132.4 L399.4,132.2 L404.9,132.1 L410.2,131.9 L415.4,131.9 L420.9,131.8 L426.9,131.6 L432.0,131.5 L437.3,131.3 L442.6,131.2 L448.0,131.1 L453.1,131.0 L458.6,130.9 L464.6,130.7 L469.4,130.5 L474.8,130.3 L480.1,130.1 L485.5,129.8 L490.7,129.6 L496.2,129.5 L502.1,129.3 L507.1,129.1 L512.6,128.9 L517.8,128.7 L523.2,128.5 L528.5,128.4 L534.0,128.3 L539.7,128.1 L544.9,127.9 L550.0,127.8" fill="none" stroke="#E91E63" stroke-width="2" stroke-linecap="round"/>
<rect x="562" y="114" width="12" height="12" rx="2" fill="#E91E63"/>
<text x="578" y="124" font-size="10" fill="#24292f">LlamaIndex</text>
<path d="M70.0,298.4 L75.2,298.3 L80.7,298.2 L86.3,298.1 L91.6,298.1 L97.0,298.0 L102.4,298.0 L107.8,297.8 L113.0,297.7 L118.4,297.6 L124.0,297.5 L129.3,297.4 L134.7,297.3 L140.1,297.2 L145.6,297.1 L150.8,297.1 L156.2,297.0 L161.8,297.0 L167.2,296.9 L172.6,296.9 L178.0,296.8 L183.3,296.7 L188.6,296.6 L194.1,296.5 L199.6,296.5 L204.9,296.4 L215.8,296.3 L220.9,296.2 L226.4,296.1 L231.8,296.0 L237.6,296.0 L242.7,295.8 L248.1,295.6 L253.5,295.5 L258.9,295.4 L264.2,295.3 L269.6,295.3 L275.4,295.2 L280.7,295.1 L286.1,294.9 L291.5,294.9 L296.8,294.7 L302.0,294.7 L307.4,294.6 L313.2,294.5 L318.5,294.5 L323.9,294.4 L329.3,294.3 L334.7,294.3 L339.7,294.3 L345.2,294.2 L351.2,294.1 L356.4,294.1 L361.9,294.0 L367.0,293.9 L372.4,293.9 L377.5,293.9 L383.0,293.8 L388.8,293.7 L393.9,293.6 L399.4,293.6 L404.9,293.4 L410.2,293.3 L415.4,293.3 L420.9,293.3 L426.9,293.2 L432.0,293.1 L437.3,293.1 L442.6,293.0 L448.0,292.9 L453.1,292.9 L458.6,292.9 L464.6,292.8 L469.4,292.7 L474.8,292.6 L480.1,292.3 L485.5,292.1 L490.7,292.0 L496.2,291.9 L502.1,291.9 L507.1,291.8 L512.6,291.7 L517.8,291.6 L523.2,291.6 L528.5,291.5 L534.0,291.5 L539.7,291.5 L544.9,291.4 L550.0,291.4" fill="none" stroke="#9C27B0" stroke-width="2" stroke-linecap="round"/>
<rect x="562" y="132" width="12" height="12" rx="2" fill="#9C27B0"/>
<text x="578" y="142" font-size="10" fill="#24292f">Haystack</text>
<path d="M70.0,354.7 L75.2,354.4 L80.7,354.2 L86.3,354.1 L91.6,353.9 L97.0,353.7 L102.4,353.5 L107.8,353.3 L113.0,353.2 L118.4,353.1 L124.0,352.9 L129.3,352.8 L134.7,352.5 L140.1,352.4 L145.6,352.3 L150.8,352.1 L156.2,351.9 L161.8,351.7 L167.2,351.6 L172.6,351.4 L178.0,351.2 L183.3,351.1 L188.6,350.9 L194.1,350.8 L199.6,350.7 L204.9,350.6 L215.8,350.3 L220.9,350.1 L226.4,349.9 L231.8,349.8 L237.6,349.6 L242.7,349.5 L248.1,349.3 L253.5,349.2 L258.9,349.1 L264.2,349.0 L269.6,348.9 L275.4,348.8 L280.7,348.6 L286.1,348.5 L291.5,348.4 L296.8,348.2 L302.0,348.1 L307.4,347.9 L313.2,347.7 L318.5,347.5 L323.9,347.4 L329.3,347.2 L334.7,347.1 L339.7,347.0 L345.2,346.9 L351.2,346.7 L356.4,346.5 L361.9,346.4 L367.0,346.2 L372.4,346.0 L377.5,345.9 L383.0,345.8 L388.8,345.5 L393.9,345.3 L399.4,345.1 L404.9,345.0 L410.2,344.8 L415.4,344.7 L420.9,344.7 L426.9,344.5 L432.0,344.4 L437.3,344.3 L442.6,344.1 L448.0,343.9 L453.1,343.9 L458.6,343.8 L464.6,343.6 L469.4,343.5 L474.8,343.2 L480.1,343.0 L485.5,342.9 L490.7,342.8 L496.2,342.7 L502.1,342.6 L507.1,342.4 L512.6,342.2 L517.8,342.1 L523.2,341.8 L528.5,341.7 L534.0,341.5 L539.7,341.4 L544.9,341.3 L550.0,341.2" fill="none" stroke="#00BCD4" stroke-width="2" stroke-linecap="round"/>
<rect x="562" y="150" width="12" height="12" rx="2" fill="#00BCD4"/>
<text x="578" y="160" font-size="10" fill="#24292f">PydanticAI</text>
<path d="M70.0,202.8 L75.2,202.6 L80.7,202.5 L86.3,202.3 L91.6,202.2 L97.0,202.0 L102.4,201.8 L107.8,201.7 L113.0,201.5 L118.4,201.4 L124.0,201.4 L129.3,201.2 L134.7,201.0 L140.1,200.8 L145.6,200.7 L150.8,200.5 L156.2,200.4 L161.8,200.2 L167.2,200.1 L172.6,199.8 L178.0,199.6 L183.3,199.4 L188.6,199.2 L194.1,199.1 L199.6,199.0 L204.9,198.9 L215.8,198.6 L220.9,198.4 L226.4,198.2 L231.8,198.1 L237.6,198.0 L242.7,197.8 L248.1,197.7 L253.5,197.6 L258.9,197.4 L264.2,197.3 L269.6,197.3 L275.4,197.2 L280.7,196.9 L286.1,196.7 L291.5,196.5 L296.8,196.4 L302.0,196.3 L307.4,196.2 L313.2,196.1 L318.5,195.9 L323.9,195.8 L329.3,195.7 L334.7,195.5 L339.7,195.6 L345.2,195.5 L351.2,195.4 L356.4,195.3 L361.9,195.1 L367.0,194.9 L372.4,194.8 L377.5,194.8 L383.0,194.7 L388.8,194.5 L393.9,194.3 L399.4,194.2 L404.9,194.1 L410.2,194.0 L415.4,193.9 L420.9,193.9 L426.9,193.8 L432.0,193.6 L437.3,193.4 L442.6,193.3 L448.0,193.3 L453.1,193.2 L458.6,193.1 L464.6,193.1 L469.4,192.9 L474.8,192.8 L480.1,192.8 L485.5,192.7 L490.7,192.6 L496.2,192.6 L502.1,192.4 L507.1,192.3 L512.6,192.1 L517.8,192.0 L523.2,191.9 L528.5,191.8 L534.0,191.8 L539.7,191.6 L544.9,191.6 L550.0,191.4" fill="none" stroke="#FF5722" stroke-width="2" stroke-linecap="round"/>
<rect x="562" y="168" width="12" height="12" rx="2" fill="#FF5722"/>
<text x="578" y="178" font-size="10" fill="#24292f">Agno</text>
<path d="M70.0,337.4 L75.2,337.3 L80.7,337.2 L86.3,336.9 L91.6,336.7 L97.0,336.5 L102.4,336.3 L107.8,336.2 L113.0,335.9 L118.4,335.7 L124.0,335.6 L129.3,335.4 L134.7,335.3 L140.1,335.0 L145.6,334.9 L150.8,334.7 L156.2,334.6 L161.8,334.4 L167.2,334.3 L172.6,334.1 L178.0,334.0 L183.3,333.9 L188.6,333.8 L194.1,333.7 L199.6,333.7 L204.9,333.5 L215.8,333.2 L220.9,333.0 L226.4,332.8 L231.8,332.8 L237.6,332.6 L242.7,332.5 L248.1,332.4 L253.5,332.3 L258.9,332.2 L264.2,332.1 L269.6,332.0 L275.4,331.9 L280.7,331.7 L286.1,331.5 L291.5,331.3 L296.8,331.2 L307.4,331.0 L313.2,330.9 L318.5,330.8 L323.9,330.6 L329.3,330.5 L334.7,330.4 L339.7,330.4 L345.2,330.3 L351.2,330.2 L356.4,330.1 L361.9,330.0 L367.0,329.9 L372.4,329.9 L377.5,329.8 L383.0,329.8 L388.8,329.7 L393.9,329.6 L399.4,329.5 L404.9,329.4 L410.2,329.3 L415.4,329.2 L420.9,329.2 L426.9,329.0 L432.0,329.0 L437.3,328.8 L442.6,328.8 L448.0,328.7 L453.1,328.6 L458.6,328.5 L464.6,328.3 L469.4,328.2 L474.8,328.0 L480.1,328.0 L485.5,327.9 L490.7,327.8 L496.2,327.7 L502.1,327.6 L507.1,327.6 L512.6,327.3 L517.8,327.2 L523.2,327.0 L528.5,326.9 L534.0,326.8 L539.7,326.6 L544.9,326.5 L550.0,326.4" fill="none" stroke="#795548" stroke-width="2" stroke-linecap="round"/>
<rect x="562" y="186" width="12" height="12" rx="2" fill="#795548"/>
<text x="578" y="196" font-size="10" fill="#24292f">Google ADK</text>
<path d="M70.0,311.0 L75.2,310.8 L80.7,310.7 L86.3,310.5 L91.6,310.2 L97.0,310.0 L102.4,309.8 L107.8,309.6 L113.0,309.4 L118.4,309.1 L124.0,309.0 L129.3,308.9 L134.7,308.7 L140.1,308.5 L145.6,308.3 L150.8,308.1 L156.2,308.0 L161.8,307.8 L167.2,307.6 L172.6,307.4 L178.0,307.2 L183.3,307.1 L188.6,307.0 L194.1,306.8 L199.6,306.5 L204.9,306.3 L215.8,305.9 L220.9,305.7 L226.4,305.5 L231.8,305.3 L237.6,305.1 L242.7,304.9 L248.1,304.6 L253.5,304.4 L258.9,304.2 L264.2,304.0 L269.6,303.9 L275.4,303.6 L280.7,303.4 L286.1,303.1 L291.5,302.6 L296.8,302.3 L302.0,302.1 L307.4,301.9 L313.2,301.7 L318.5,301.4 L323.9,301.1 L329.3,300.6 L334.7,300.1 L339.7,299.9 L345.2,299.7 L351.2,299.4 L356.4,299.2 L361.9,298.9 L367.0,298.6 L372.4,298.3 L377.5,298.2 L383.0,298.0 L388.8,297.8 L393.9,297.6 L399.4,297.5 L404.9,297.2 L410.2,297.1 L415.4,296.9 L420.9,296.6 L426.9,296.4 L432.0,296.1 L437.3,295.9 L442.6,295.7 L448.0,295.4 L453.1,295.2 L458.6,295.0 L464.6,294.8 L469.4,294.6 L474.8,294.3 L480.1,294.1 L485.5,293.9 L490.7,293.7 L496.2,293.5 L502.1,293.3 L507.1,293.0 L512.6,292.7 L517.8,292.3 L523.2,291.9 L528.5,291.7 L534.0,291.5 L539.7,291.3 L544.9,291.1 L550.0,290.8" fill="none" stroke="#607D8B" stroke-width="2" stroke-linecap="round"/>
<rect x="562" y="204" width="12" height="12" rx="2" fill="#607D8B"/>
<text x="578" y="214" font-size="10" fill="#24292f">Mastra</text>
<path d="M70.0,325.4 L75.2,325.2 L80.7,325.1 L86.3,324.9 L91.6,324.8 L97.0,324.7 L102.4,324.0 L107.8,320.3 L113.0,317.0 L118.4,312.9 L124.0,306.5 L129.3,302.4 L134.7,300.4 L140.1,298.7 L145.6,297.5 L150.8,296.7 L156.2,295.6 L161.8,294.5 L167.2,293.9 L172.6,293.5 L178.0,293.1 L183.3,292.6 L188.6,292.2 L194.1,291.7 L199.6,291.4 L204.9,291.1 L215.8,290.5 L220.9,290.0 L226.4,289.7 L231.8,289.6 L237.6,289.2 L242.7,288.9 L248.1,288.6 L253.5,288.5 L258.9,288.2 L264.2,288.1 L269.6,287.9 L275.4,287.6 L280.7,287.3 L286.1,287.1 L291.5,286.9 L296.8,286.6 L307.4,286.4 L313.2,286.2 L318.5,286.0 L323.9,285.8 L329.3,285.7 L334.7,285.5 L339.7,285.4 L345.2,285.2 L351.2,285.0 L356.4,284.8 L361.9,284.7 L367.0,284.4 L372.4,284.2 L377.5,284.2 L383.0,284.0 L388.8,283.9 L393.9,283.7 L399.4,283.4 L404.9,283.3 L410.2,283.1 L415.4,283.0 L420.9,282.9 L426.9,282.7 L432.0,282.6 L437.3,282.4 L442.6,282.3 L448.0,282.1 L453.1,282.0 L458.6,281.9 L464.6,281.6 L469.4,281.4 L474.8,281.2 L480.1,281.1 L485.5,280.9 L490.7,280.8 L496.2,280.6 L502.1,280.5 L507.1,280.3 L512.6,280.2 L517.8,280.0 L523.2,279.7 L528.5,279.6 L534.0,279.5 L539.7,279.3 L544.9,279.2 L550.0,279.0" fill="none" stroke="#CDDC39" stroke-width="2" stroke-linecap="round"/>
<rect x="562" y="222" width="12" height="12" rx="2" fill="#CDDC39"/>
<text x="578" y="232" font-size="10" fill="#24292f">OpenAI Agents SDK</text>
</svg>