<svg width="700" height="400" xmlns="http://www.w3.org/2000/svg">
<style>text { font-family: -apple-system, BlinkMacSystemFont, "Segoe UI", Helvetica, Arial, sans-serif; }</style>
<text x="350" y="24" text-anchor="middle" font-size="14" font-weight="bold" fill="#24292f">Star Growth Over Time</text>
<rect x="70" y="50" width="480" height="310" fill="#f6f8fa" rx="4"/>
<line x1="70" y1="50.0" x2="550" y2="50.0" stroke="#e1e4e8" stroke-width="1"/>
<text x="62" y="54.0" text-anchor="end" font-size="10" fill="#57606a">61.4k</text>
<line x1="70" y1="127.5" x2="550" y2="127.5" stroke="#e1e4e8" stroke-width="1"/>
<text x="62" y="131.5" text-anchor="end" font-size="10" fill="#57606a">49.8k</text>
<line x1="70" y1="205.0" x2="550" y2="205.0" stroke="#e1e4e8" stroke-width="1"/>
<text x="62" y="209.0" text-anchor="end" font-size="10" fill="#57606a">38.3k</text>
<line x1="70" y1="282.5" x2="550" y2="282.5" stroke="#e1e4e8" stroke-width="1"/>
<text x="62" y="286.5" text-anchor="end" font-size="10" fill="#57606a">26.8k</text>
<line x1="70" y1="360.0" x2="550" y2="360.0" stroke="#e1e4e8" stroke-width="1"/>
<text x="62" y="364.0" text-anchor="end" font-size="10" fill="#57606a">15.2k</text>
<path d="M70.0,273.0 L70.1,273.0 L71.4,272.8 L80.0,272.2 L88.6,271.7 L97.4,271.2 L106.3,270.8 L114.8,270.2 L123.6,269.6 L132.3,269.0 L141.0,268.4 L149.4,267.9 L158.2,267.5 L167.2,266.7 L175.8,266.1 L184.5,265.4 L193.2,264.7 L201.8,264.2 L210.3,263.8 L219.0,263.3 L228.0,262.7 L236.6,261.9 L245.3,261.0 L254.0,260.0 L262.7,259.2 L271.1,258.7 L279.9,258.0 L288.9,257.2 L297.6,256.5 L306.2,255.7 L314.9,254.9 L323.6,254.3 L332.1,253.9 L340.9,253.5 L349.7,253.1 L358.3,252.6 L375.8,251.4 L384.2,250.7 L392.9,250.1 L401.7,249.7 L411.0,249.1 L419.3,248.4 L428.0,247.8 L436.6,247.1 L445.4,246.7 L453.8,246.3 L462.6,245.9 L471.9,245.1 L480.5,244.6 L489.1,244.0 L497.8,243.4 L506.4,242.7 L514.7,242.3 L523.4,241.9 L532.7,241.3 L541.3,240.5 L550.0,239.8" fill="none" stroke="#4CAF50" stroke-width="2" stroke-linecap="round"/>
<rect x="562" y="60" width="12" height="12" rx="2" fill="#4CAF50"/>
<text x="578" y="70" font-size="10" fill="#24292f">LangGraph</text>
<path d="M70.0,141.1 L70.1,141.1 L71.4,141.0 L80.0,140.5 L88.6,140.0 L97.4,139.4 L106.3,139.0 L114.8,138.4 L123.6,137.7 L132.3,137.1 L141.0,136.5 L149.4,136.0 L158.2,135.5 L167.2,134.8 L175.8,134.2 L184.5,133.6 L193.2,133.1 L201.8,132.6 L210.3,132.2 L219.0,131.8 L228.0,131.1 L236.6,130.5 L245.3,129.8 L254.0,128.9 L262.7,128.0 L271.1,127.5 L279.9,126.8 L288.9,126.1 L297.6,125.4 L306.2,124.8 L314.9,124.2 L323.6,123.7 L332.1,123.3 L340.9,122.9 L349.7,122.6 L358.3,122.1 L375.8,121.1 L384.2,120.5 L392.9,119.9 L401.7,119.3 L411.0,118.7 L419.3,118.2 L428.0,117.6 L436.6,117.1 L445.4,116.7 L453.8,116.3 L462.6,115.9 L471.9,115.4 L480.5,114.9 L489.1,114.4 L497.8,113.9 L506.4,113.3 L514.7,112.9 L523.4,112.5 L532.7,112.0 L541.3,111.5 L550.0,111.1" fill="none" stroke="#2196F3" stroke-width="2" stroke-linecap="round"/>
<rect x="562" y="78" width="12" height="12" rx="2" fill="#2196F3"/>
<text x="578" y="88" font-size="10" fill="#24292f">CrewAI</text>
<path d="M70.0,82.2 L70.1,82.2 L71.4,82.1 L80.0,81.9 L88.6,81.6 L97.4,81.4 L106.3,81.1 L114.8,80.8 L123.6,80.6 L132.3,80.4 L141.0,80.0 L149.4,79.7 L158.2,79.5 L167.2,79.2 L175.8,78.9 L184.5,78.7 L193.2,78.5 L201.8,78.2 L210.3,78.2 L219.0,78.0 L228.0,77.8 L236.6,77.6 L245.3,77.2 L254.0,77.0 L262.7,76.8 L271.1,76.6 L279.9,76.4 L288.9,76.2 L297.6,75.8 L306.2,75.6 L314.9,75.4 L323.6,75.2 L332.1,75.0 L340.9,74.9 L349.7,74.7 L358.3,74.6 L375.8,74.1 L384.2,73.9 L392.9,73.6 L401.7,73.5 L411.0,73.2 L419.3,72.9 L428.0,72.7 L436.6,72.5 L445.4,72.4 L453.8,72.2 L462.6,72.0 L471.9,71.7 L480.5,71.5 L489.1,71.2 L497.8,71.0 L506.4,70.7 L514.7,70.6 L523.4,70.4 L532.7,70.1 L541.3,69.9 L550.0,69.6" fill="none" stroke="#FF9800" stroke-width="2" stroke-linecap="round"/>
<rect x="562" y="96" width="12" height="12" rx="2" fill="#FF9800"/>
<text x="578" y="106" font-size="10" fill="#24292f">AutoGen</text>
<path d="M70.0,138.4 L70.1,138.4 L71.4,138.3 L80.0,138.1 L88.6,137.9 L97.4,137.8 L106.3,137.7 L114.8,137.4 L123.6,137.2 L132.3,136.9 L141.0,136.6 L149.4,136.5 L158.2,136.4 L167.2,136.2 L175.8,136.0 L184.5,135.8 L193.2,135.6 L201.8,135.5 L210.3,135.4 L219.0,135.2 L228.0,135.1 L236.6,134.8 L245.3,134.5 L254.0,134.2 L262.7,133.9 L271.1,133.8 L279.9,133.5 L288.9,133.3 L297.6,133.1 L306.2,132.9 L314.9,132.7 L323.6,132.6 L332.1,132.5 L340.9,132.4 L349.7,132.3 L358.3,132.2 L375.8,131.9 L384.2,131.5 L392.9,131.4 L401.7,131.2 L411.0,130.9 L419.3,130.7 L428.0,130.6 L436.6,130.4 L445.4,130.2 L453.8,130.1 L462.6,130.0 L471.9,129.9 L480.5,129.7 L489.1,129.6 L497.8,129.4 L506.4,129.2 L523.4,128.9 L532.7,128.8 L541.3,128.6 L550.0,128.4" fill="none" stroke="#E91E63" stroke-width="2" stroke-linecap="round"/>
<rect x="562" y="114" width="12" height="12" rx="2" fill="#E91E63"/>
<text x="578" y="124" font-size="10" fill="#24292f">LlamaIndex</text>
<path d="M70.0,296.5 L70.1,296.5 L71.4,296.4 L80.0,296.4 L88.6,296.3 L97.4,296.2 L106.3,296.2 L114.8,296.0 L123.6,295.9 L132.3,295.8 L141.0,295.7 L149.4,295.6 L158.2,295.6 L167.2,295.5 L175.8,295.4 L184.5,295.4 L193.2,295.3 L201.8,295.2 L210.3,295.1 L219.0,295.0 L228.0,294.9 L236.6,294.8 L245.3,294.7 L254.0,294.6 L262.7,294.5 L271.1,294.4 L279.9,294.3 L288.9,294.3 L297.6,294.3 L306.2,294.2 L314.9,294.1 L323.6,294.0 L332.1,293.9 L340.9,293.9 L349.7,293.8 L358.3,293.7 L375.8,293.6 L384.2,293.5 L392.9,293.4 L401.7,293.4 L411.0,293.3 L419.3,293.1 L428.0,292.9 L436.6,292.8 L445.4,292.7 L453.8,292.7 L462.6,292.6 L471.9,292.5 L480.5,292.4 L489.1,292.3 L497.8,292.2 L506.4,292.0 L514.7,292.0 L523.4,291.9 L532.7,291.8 L541.3,291.8 L550.0,291.7" fill="none" stroke="#9C27B0" stroke-width="2" stroke-linecap="round"/>
<rect x="562" y="132" width="12" height="12" rx="2" fill="#9C27B0"/>
<text x="578" y="142" font-size="10" fill="#24292f">Haystack</text>
<path d="M70.0,354.6 L70.1,354.6 L71.4,354.5 L80.0,354.4 L88.6,354.1 L97.4,354.1 L106.3,354.0 L114.8,353.8 L123.6,353.6 L132.3,353.5 L141.0,353.3 L149.4,353.0 L158.2,352.8 L167.2,352.6 L175.8,352.5 L184.5,352.3 L193.2,352.1 L201.8,351.9 L210.3,351.8 L219.0,351.7 L228.0,351.5 L236.6,351.3 L245.3,351.1 L254.0,351.0 L262.7,350.8 L271.1,350.6 L279.9,350.5 L288.9,350.3 L297.6,350.1 L306.2,349.9 L314.9,349.7 L323.6,349.6 L332.1,349.4 L340.9,349.3 L349.7,349.2 L358.3,349.1 L375.8,348.8 L384.2,348.6 L392.9,348.4 L401.7,348.3 L411.0,348.1 L419.3,347.9 L428.0,347.8 L436.6,347.7 L445.4,347.6 L453.8,347.5 L462.6,347.4 L471.9,347.2 L480.5,347.1 L489.1,347.0 L497.8,346.8 L506.4,346.7 L514.7,346.5 L523.4,346.4 L532.7,346.2 L541.3,345.9 L550.0,345.8" fill="none" stroke="#00BCD4" stroke-width="2" stroke-linecap="round"/>
<rect x="562" y="150" width="12" height="12" rx="2" fill="#00BCD4"/>
<text x="578" y="160" font-size="10" fill="#24292f">PydanticAI</text>
<path d="M70.0,199.7 L70.1,199.7 L71.4,199.6 L80.0,199.4 L88.6,199.2 L97.4,199.1 L106.3,199.0 L114.8,198.8 L123.6,198.6 L132.3,198.4 L141.0,198.2 L149.4,198.0 L158.2,197.8 L167.2,197.7 L175.8,197.5 L184.5,197.3 L193.2,197.1 L201.8,197.0 L210.3,196.8 L219.0,196.7 L228.0,196.7 L236.6,196.5 L245.3,196.3 L254.0,196.1 L262.7,195.9 L271.1,195.8 L279.9,195.7 L288.9,195.5 L297.6,195.4 L306.2,195.1 L314.9,194.8 L323.6,194.7 L332.1,194.5 L340.9,194.4 L349.7,194.2 L358.3,194.2 L375.8,193.8 L384.2,193.6 L392.9,193.4 L401.7,193.3 L411.0,193.2 L419.3,193.0 L428.0,192.9 L436.6,192.8 L445.4,192.7 L453.8,192.6 L462.6,192.5 L471.9,192.4 L480.5,192.1 L489.1,191.9 L497.8,191.7 L506.4,191.5 L514.7,191.5 L523.4,191.4 L532.7,191.2 L541.3,191.1 L550.0,191.0" fill="none" stroke="#FF5722" stroke-width="2" stroke-linecap="round"/>
<rect x="562" y="168" width="12" height="12" rx="2" fill="#FF5722"/>
<text x="578" y="178" font-size="10" fill="#24292f">Agno</text>
<path d="M70.0,336.6 L70.1,336.6 L71.4,336.6 L80.0,336.5 L88.6,336.4 L97.4,336.3 L106.3,336.2 L114.8,336.0 L123.6,335.9 L132.3,335.7 L141.0,335.6 L149.4,335.5 L158.2,335.4 L167.2,335.1 L175.8,334.9 L184.5,334.7 L193.2,334.5 L201.8,334.4 L210.3,334.0 L219.0,333.9 L228.0,333.7 L236.6,333.6 L245.3,333.4 L254.0,333.2 L262.7,333.1 L271.1,332.9 L279.9,332.7 L288.9,332.6 L297.6,332.5 L306.2,332.3 L314.9,332.2 L323.6,332.1 L332.1,332.0 L340.9,331.9 L349.7,331.8 L358.3,331.7 L375.8,331.3 L384.2,331.1 L392.9,330.9 L401.7,330.9 L411.0,330.8 L419.3,330.6 L428.0,330.5 L436.6,330.4 L445.4,330.3 L453.8,330.2 L462.6,330.1 L471.9,330.0 L480.5,329.8 L489.1,329.6 L497.8,329.4 L506.4,329.3 L523.4,329.1 L532.7,329.0 L541.3,328.8 L550.0,328.7" fill="none" stroke="#795548" stroke-width="2" stroke-linecap="round"/>
<rect x="562" y="186" width="12" height="12" rx="2" fill="#795548"/>
<text x="578" y="196" font-size="10" fill="#24292f">Google ADK</text>
<path d="M70.0,310.6 L70.1,310.6 L71.4,310.6 L80.0,310.3 L88.6,310.0 L97.4,309.8 L106.3,309.6 L114.8,309.4 L123.6,309.2 L132.3,308.9 L141.0,308.7 L149.4,308.5 L158.2,308.4 L167.2,308.2 L175.8,307.9 L184.5,307.7 L193.2,307.4 L201.8,307.2 L210.3,307.0 L219.0,306.8 L228.0,306.6 L236.6,306.5 L245.3,306.3 L254.0,306.1 L262.7,305.9 L271.1,305.7 L279.9,305.6 L288.9,305.4 L297.6,305.2 L306.2,305.0 L314.9,304.8 L323.6,304.7 L332.1,304.5 L340.9,304.4 L349.7,304.1 L358.3,303.9 L375.8,303.5 L384.2,303.3 L392.9,303.0 L401.7,302.8 L411.0,302.6 L419.3,302.4 L428.0,302.2 L436.6,301.9 L445.4,301.7 L453.8,301.5 L462.6,301.4 L471.9,301.1 L480.5,300.8 L489.1,300.6 L497.8,300.1 L506.4,299.7 L514.7,299.5 L523.4,299.4 L532.7,299.1 L541.3,298.9 L550.0,298.5" fill="none" stroke="#607D8B" stroke-width="2" stroke-linecap="round"/>
<rect x="562" y="204" width="12" height="12" rx="2" fill="#607D8B"/>
<text x="578" y="214" font-size="10" fill="#24292f">Mastra</text>
<path d="M70.0,324.5 L70.1,324.5 L71.4,324.5 L80.0,324.3 L88.6,324.1 L97.4,324.0 L106.3,323.9 L114.8,323.7 L123.6,323.6 L132.3,323.4 L141.0,323.3 L149.4,323.2 L158.2,323.1 L167.2,322.9 L175.8,322.7 L184.5,322.6 L193.2,321.9 L201.8,318.1 L210.3,314.8 L219.0,310.6 L228.0,304.1 L236.6,299.9 L245.3,297.8 L254.0,296.1 L262.7,294.9 L271.1,294.1 L279.9,292.9 L288.9,291.8 L297.6,291.2 L306.2,290.7 L314.9,290.4 L323.6,289.9 L332.1,289.4 L340.9,288.9 L349.7,288.7 L358.3,288.4 L375.8,287.8 L384.2,287.2 L392.9,286.9 L401.7,286.7 L411.0,286.4 L419.3,286.1 L428.0,285.8 L436.6,285.6 L445.4,285.4 L453.8,285.3 L462.6,285.1 L471.9,284.7 L480.5,284.5 L489.1,284.3 L497.8,284.0 L506.4,283.8 L523.4,283.5 L532.7,283.3 L541.3,283.1 L550.0,282.9" fill="none" stroke="#CDDC39" stroke-width="2" stroke-linecap="round"/>
<rect x="562" y="222" width="12" height="12" rx="2" fill="#CDDC39"/>
<text x="578" y="232" font-size="10" fill="#24292f">OpenAI Agents SDK</text>
</svg>