<svg width="700" height="570" xmlns="http://www.w3.org/2000/svg">
<style>text { font-family: -apple-system, BlinkMacSystemFont, "Segoe UI", Helvetica, Arial, sans-serif; }</style>
<text x="350" y="24" text-anchor="middle" font-size="14" font-weight="bold" fill="#24292f">GitHub Stars</text>
<text x="152" y="59" text-anchor="end" font-size="12" fill="#57606a">Claude Agent SDK</text>
<rect x="160" y="40" width="480.0" height="28" rx="4" fill="#4caf50" opacity="0.85"/>
<text x="646.0" y="59" font-size="11" fill="#24292f">126884.0</text>
<text x="152" y="93" text-anchor="end" font-size="12" fill="#57606a">BrowserUse</text>
<rect x="160" y="74" width="362.4" height="28" rx="4" fill="#77b56d" opacity="0.85"/>
<text x="528.3681472841336" y="93" font-size="11" fill="#24292f">95789.0</text>
<text x="152" y="127" text-anchor="end" font-size="12" fill="#57606a">AutoGen</text>
<rect x="160" y="108" width="221.1" height="28" rx="4" fill="#acbc90" opacity="0.85"/>
<text x="387.10400050439773" y="127" font-size="11" fill="#24292f">58447.0</text>
<text x="152" y="161" text-anchor="end" font-size="12" fill="#57606a">CrewAI</text>
<rect x="160" y="142" width="197.8" height="28" rx="4" fill="#b5bd96" opacity="0.85"/>
<text x="363.76299612244253" y="161" font-size="11" fill="#24292f">52277.0</text>
<text x="152" y="195" text-anchor="end" font-size="12" fill="#57606a">LlamaIndex</text>
<rect x="160" y="176" width="188.0" height="28" rx="4" fill="#b8be99" opacity="0.85"/>
<text x="353.9953343211122" y="195" font-size="11" fill="#24292f">49695.0</text>
<text x="152" y="229" text-anchor="end" font-size="12" fill="#57606a">Agno</text>
<rect x="160" y="210" width="152.7" height="28" rx="4" fill="#c6c0a1" opacity="0.85"/>
<text x="318.7341508779673" y="229" font-size="11" fill="#24292f">40374.0</text>
<text x="152" y="263" text-anchor="end" font-size="12" fill="#57606a">DSPy</text>
<rect x="160" y="244" width="131.2" height="28" rx="4" fill="#cec1a7" opacity="0.85"/>
<text x="297.18628038208124" y="263" font-size="11" fill="#24292f">34678.0</text>
<text x="152" y="297" text-anchor="end" font-size="12" fill="#57606a">LangGraph</text>
<rect x="160" y="278" width="125.2" height="28" rx="4" fill="#d0c1a8" opacity="0.85"/>
<text x="291.2469972573374" y="297" font-size="11" fill="#24292f">33108.0</text>
<text x="152" y="331" text-anchor="end" font-size="12" fill="#57606a">Composio</text>
<rect x="160" y="312" width="107.7" height="28" rx="4" fill="#d6c2ad" opacity="0.85"/>
<text x="273.73935247943" y="331" font-size="11" fill="#24292f">28480.0</text>
<text x="152" y="365" text-anchor="end" font-size="12" fill="#57606a">Semantic Kernel</text>
<rect x="160" y="346" width="105.9" height="28" rx="4" fill="#d7c2ad" opacity="0.85"/>
<text x="271.89325683301286" y="365" font-size="11" fill="#24292f">27992.0</text>
<text x="152" y="399" text-anchor="end" font-size="12" fill="#57606a">Smolagents</text>
<rect x="160" y="380" width="104.2" height="28" rx="4" fill="#d8c2ad" opacity="0.85"/>
<text x="270.18334857034773" y="399" font-size="11" fill="#24292f">27540.0</text>
<text x="152" y="433" text-anchor="end" font-size="12" fill="#57606a">OpenAI Agents SDK</text>
<rect x="160" y="414" width="101.0" height="28" rx="4" fill="#d9c2ae" opacity="0.85"/>
<text x="266.97916206929165" y="433" font-size="11" fill="#24292f">26693.0</text>
<text x="152" y="467" text-anchor="end" font-size="12" fill="#57606a">Haystack</text>
<rect x="160" y="448" width="96.0" height="28" rx="4" fill="#dbc2af" opacity="0.85"/>
<text x="262.03858642539643" y="467" font-size="11" fill="#24292f">25387.0</text>
<text x="152" y="501" text-anchor="end" font-size="12" fill="#57606a">Mastra</text>
<rect x="160" y="482" width="92.2" height="28" rx="4" fill="#dcc3b0" opacity="0.85"/>
<text x="258.2102077488099" y="501" font-size="11" fill="#24292f">24375.0</text>
<text x="152" y="535" text-anchor="end" font-size="12" fill="#57606a">Letta</text>
<rect x="160" y="516" width="86.9" height="28" rx="4" fill="#dec3b2" opacity="0.85"/>
<text x="252.94429557706252" y="535" font-size="11" fill="#24292f">22983.0</text>
</svg>