<svg width="700" height="570" xmlns="http://www.w3.org/2000/svg">
<style>text { font-family: -apple-system, BlinkMacSystemFont, "Segoe UI", Helvetica, Arial, sans-serif; }</style>
<text x="350" y="24" text-anchor="middle" font-size="14" font-weight="bold" fill="#24292f">GitHub Stars</text>
<text x="152" y="59" text-anchor="end" font-size="12" fill="#57606a">Claude Agent SDK</text>
<rect x="160" y="40" width="480.0" height="28" rx="4" fill="#4caf50" opacity="0.85"/>
<text x="646.0" y="59" font-size="11" fill="#24292f">118665.0</text>
<text x="152" y="93" text-anchor="end" font-size="12" fill="#57606a">BrowserUse</text>
<rect x="160" y="74" width="367.5" height="28" rx="4" fill="#75b46c" opacity="0.85"/>
<text x="533.5044874225762" y="93" font-size="11" fill="#24292f">90854.0</text>
<text x="152" y="127" text-anchor="end" font-size="12" fill="#57606a">AutoGen</text>
<rect x="160" y="108" width="232.7" height="28" rx="4" fill="#a8bb8d" opacity="0.85"/>
<text x="398.6765263557072" y="127" font-size="11" fill="#24292f">57522.0</text>
<text x="152" y="161" text-anchor="end" font-size="12" fill="#57606a">CrewAI</text>
<rect x="160" y="142" width="202.8" height="28" rx="4" fill="#b3bd95" opacity="0.85"/>
<text x="368.82846669194794" y="161" font-size="11" fill="#24292f">50143.0</text>
<text x="152" y="195" text-anchor="end" font-size="12" fill="#57606a">LlamaIndex</text>
<rect x="160" y="176" width="198.2" height="28" rx="4" fill="#b5bd96" opacity="0.85"/>
<text x="364.1807609657439" y="195" font-size="11" fill="#24292f">48994.0</text>
<text x="152" y="229" text-anchor="end" font-size="12" fill="#57606a">Agno</text>
<rect x="160" y="210" width="160.7" height="28" rx="4" fill="#c3bf9f" opacity="0.85"/>
<text x="326.67551510554927" y="229" font-size="11" fill="#24292f">39722.0</text>
<text x="152" y="263" text-anchor="end" font-size="12" fill="#57606a">DSPy</text>
<rect x="160" y="244" width="137.7" height="28" rx="4" fill="#cbc0a5" opacity="0.85"/>
<text x="303.6918215143471" y="263" font-size="11" fill="#24292f">34040.0</text>
<text x="152" y="297" text-anchor="end" font-size="12" fill="#57606a">LangGraph</text>
<rect x="160" y="278" width="123.9" height="28" rx="4" fill="#d0c1a9" opacity="0.85"/>
<text x="289.89836935912024" y="297" font-size="11" fill="#24292f">30630.0</text>
<text x="152" y="331" text-anchor="end" font-size="12" fill="#57606a">Composio</text>
<rect x="160" y="312" width="113.0" height="28" rx="4" fill="#d4c2ab" opacity="0.85"/>
<text x="279.0173176589559" y="331" font-size="11" fill="#24292f">27940.0</text>
<text x="152" y="365" text-anchor="end" font-size="12" fill="#57606a">Semantic Kernel</text>
<rect x="160" y="346" width="112.4" height="28" rx="4" fill="#d5c2ab" opacity="0.85"/>
<text x="278.4429275692074" y="365" font-size="11" fill="#24292f">27798.0</text>
<text x="152" y="399" text-anchor="end" font-size="12" fill="#57606a">Smolagents</text>
<rect x="160" y="380" width="109.0" height="28" rx="4" fill="#d6c2ac" opacity="0.85"/>
<text x="274.99658703071674" y="399" font-size="11" fill="#24292f">26946.0</text>
<text x="152" y="433" text-anchor="end" font-size="12" fill="#57606a">OpenAI Agents SDK</text>
<rect x="160" y="414" width="103.0" height="28" rx="4" fill="#d8c2ae" opacity="0.85"/>
<text x="268.9816710908861" y="433" font-size="11" fill="#24292f">25459.0</text>
<text x="152" y="467" text-anchor="end" font-size="12" fill="#57606a">Haystack</text>
<rect x="160" y="448" width="101.1" height="28" rx="4" fill="#d9c2ae" opacity="0.85"/>
<text x="267.1492858045759" y="467" font-size="11" fill="#24292f">25006.0</text>
<text x="152" y="501" text-anchor="end" font-size="12" fill="#57606a">Mastra</text>
<rect x="160" y="482" width="94.6" height="28" rx="4" fill="#dbc3b0" opacity="0.85"/>
<text x="260.580204778157" y="501" font-size="11" fill="#24292f">23382.0</text>
<text x="152" y="535" text-anchor="end" font-size="12" fill="#57606a">Letta</text>
<rect x="160" y="516" width="90.4" height="28" rx="4" fill="#ddc3b1" opacity="0.85"/>
<text x="256.38149412210845" y="535" font-size="11" fill="#24292f">22344.0</text>
</svg>