<svg width="700" height="400" xmlns="http://www.w3.org/2000/svg">
<style>text { font-family: -apple-system, BlinkMacSystemFont, "Segoe UI", Helvetica, Arial, sans-serif; }</style>
<text x="350" y="24" text-anchor="middle" font-size="14" font-weight="bold" fill="#24292f">Star Growth Over Time</text>
<rect x="70" y="50" width="480" height="310" fill="#f6f8fa" rx="4"/>
<line x1="70" y1="50.0" x2="550" y2="50.0" stroke="#e1e4e8" stroke-width="1"/>
<text x="62" y="54.0" text-anchor="end" font-size="10" fill="#57606a">62.9k</text>
<line x1="70" y1="127.5" x2="550" y2="127.5" stroke="#e1e4e8" stroke-width="1"/>
<text x="62" y="131.5" text-anchor="end" font-size="10" fill="#57606a">51.1k</text>
<line x1="70" y1="205.0" x2="550" y2="205.0" stroke="#e1e4e8" stroke-width="1"/>
<text x="62" y="209.0" text-anchor="end" font-size="10" fill="#57606a">39.4k</text>
<line x1="70" y1="282.5" x2="550" y2="282.5" stroke="#e1e4e8" stroke-width="1"/>
<text x="62" y="286.5" text-anchor="end" font-size="10" fill="#57606a">27.6k</text>
<line x1="70" y1="360.0" x2="550" y2="360.0" stroke="#e1e4e8" stroke-width="1"/>
<text x="62" y="364.0" text-anchor="end" font-size="10" fill="#57606a">15.8k</text>
<path d="M70.0,263.9 L75.6,263.2 L81.0,262.5 L86.3,261.7 L91.7,260.9 L97.1,260.3 L102.4,259.9 L107.8,259.5 L113.3,259.1 L118.6,258.7 L129.5,257.5 L134.7,256.8 L140.1,256.2 L145.6,255.8 L151.3,255.2 L156.5,254.6 L161.9,253.9 L167.3,253.3 L172.7,252.9 L177.9,252.5 L183.4,252.1 L189.2,251.4 L194.5,250.9 L199.8,250.2 L205.3,249.6 L210.6,249.0 L215.7,248.6 L221.1,248.2 L226.9,247.6 L232.3,246.8 L237.6,246.2 L243.1,245.4 L248.4,244.9 L253.5,244.5 L258.9,244.1 L265.0,243.2 L270.1,242.7 L275.6,242.0 L280.8,241.4 L286.2,240.6 L291.2,240.2 L296.8,239.9 L302.6,239.3 L307.7,238.7 L313.2,238.1 L318.7,237.5 L324.0,237.0 L329.1,236.4 L334.6,235.8 L340.6,235.0 L345.8,234.3 L351.1,233.6 L356.4,233.0 L361.8,232.5 L366.9,232.0 L372.4,231.6 L378.3,230.9 L383.2,230.4 L388.5,229.7 L393.9,229.1 L399.3,228.4 L404.5,228.0 L410.0,227.6 L415.8,227.1 L420.9,226.3 L426.3,225.8 L431.6,225.2 L437.0,224.6 L442.2,224.2 L447.7,223.8 L453.5,223.1 L458.6,222.7 L463.8,222.0 L469.4,221.4 L474.8,220.8 L479.8,220.5 L485.3,220.0 L490.9,219.5 L496.0,218.9 L501.4,218.4 L506.8,217.9 L512.2,217.3 L517.5,217.0 L523.0,216.7 L528.6,216.2 L533.8,215.7 L539.2,215.1 L544.6,214.6 L550.0,214.0" fill="none" stroke="#4CAF50" stroke-width="2" stroke-linecap="round"/>
<rect x="562" y="60" width="12" height="12" rx="2" fill="#4CAF50"/>
<text x="578" y="70" font-size="10" fill="#24292f">LangGraph</text>
<path d="M70.0,135.5 L75.6,134.8 L81.0,134.1 L86.3,133.5 L91.7,132.9 L97.1,132.4 L102.4,132.0 L107.8,131.7 L113.3,131.3 L118.6,130.8 L129.5,129.9 L134.7,129.3 L140.1,128.7 L145.6,128.1 L151.3,127.5 L156.5,127.0 L161.9,126.4 L167.3,126.0 L172.7,125.6 L177.9,125.2 L183.4,124.8 L189.2,124.3 L194.5,123.8 L199.8,123.3 L205.3,122.8 L210.6,122.3 L215.7,121.9 L221.1,121.5 L226.9,120.9 L232.3,120.5 L237.6,120.1 L243.1,119.6 L248.4,119.1 L253.5,118.9 L258.9,118.6 L265.0,118.0 L270.1,117.5 L275.6,117.0 L280.8,116.5 L286.2,116.1 L291.2,115.9 L296.8,115.6 L302.6,115.0 L307.7,114.5 L313.2,114.0 L318.7,113.6 L324.0,113.2 L329.1,112.6 L334.6,111.9 L340.6,111.4 L345.8,110.8 L351.1,110.2 L356.4,109.5 L361.8,109.0 L366.9,108.7 L372.4,108.3 L378.3,107.9 L383.2,107.4 L388.5,106.9 L393.9,106.5 L399.3,106.1 L404.5,105.8 L410.0,105.5 L415.8,105.1 L420.9,104.7 L426.3,104.3 L431.6,103.8 L437.0,103.4 L442.2,103.0 L447.7,102.6 L453.5,102.1 L458.6,101.8 L463.8,101.3 L469.4,100.8 L474.8,100.3 L479.8,99.9 L485.3,99.7 L490.9,99.4 L496.0,99.0 L501.4,98.5 L506.8,98.2 L512.2,97.7 L517.5,97.4 L523.0,97.1 L528.6,96.7 L533.8,96.4 L539.2,95.9 L544.6,95.6 L550.0,95.2" fill="none" stroke="#2196F3" stroke-width="2" stroke-linecap="round"/>
<rect x="562" y="78" width="12" height="12" rx="2" fill="#2196F3"/>
<text x="578" y="88" font-size="10" fill="#24292f">CrewAI</text>
<path d="M70.0,86.1 L75.6,85.9 L81.0,85.6 L86.3,85.3 L91.7,85.1 L97.1,84.9 L102.4,84.7 L107.8,84.6 L113.3,84.5 L118.6,84.3 L129.5,83.9 L134.7,83.6 L140.1,83.4 L145.6,83.2 L151.3,83.0 L156.5,82.7 L161.9,82.4 L167.3,82.3 L172.7,82.1 L177.9,82.0 L183.4,81.8 L189.2,81.5 L194.5,81.3 L199.8,81.0 L205.3,80.8 L210.6,80.5 L215.7,80.4 L221.1,80.2 L226.9,79.9 L232.3,79.7 L237.6,79.5 L243.1,79.2 L248.4,79.0 L253.5,78.9 L258.9,78.8 L265.0,78.5 L270.1,78.2 L275.6,78.1 L280.8,77.9 L286.2,77.8 L291.2,77.6 L296.8,77.5 L302.6,77.4 L307.7,77.1 L313.2,76.9 L318.7,76.7 L324.0,76.5 L329.1,76.4 L334.6,76.2 L340.6,76.1 L345.8,75.8 L351.1,75.6 L356.4,75.5 L361.8,75.4 L366.9,75.3 L372.4,75.2 L378.3,74.9 L383.2,74.6 L388.5,74.5 L393.9,74.3 L399.3,74.1 L404.5,73.9 L410.0,73.8 L415.8,73.5 L420.9,73.4 L426.3,73.2 L431.6,73.1 L437.0,72.8 L442.2,72.7 L447.7,72.6 L453.5,72.4 L458.6,72.2 L463.8,72.1 L469.4,71.9 L474.8,71.7 L479.8,71.6 L485.3,71.4 L490.9,71.2 L496.0,71.1 L501.4,71.0 L506.8,70.8 L512.2,70.7 L517.5,70.6 L523.0,70.5 L528.6,70.3 L533.8,70.1 L539.2,70.0 L544.6,69.8 L550.0,69.7" fill="none" stroke="#FF9800" stroke-width="2" stroke-linecap="round"/>
<rect x="562" y="96" width="12" height="12" rx="2" fill="#FF9800"/>
<text x="578" y="106" font-size="10" fill="#24292f">AutoGen</text>
<path d="M70.0,142.0 L75.6,141.9 L81.0,141.7 L86.3,141.4 L91.7,141.3 L97.1,141.2 L102.4,141.0 L107.8,140.9 L113.3,140.8 L118.6,140.8 L129.5,140.4 L134.7,140.1 L140.1,139.9 L145.6,139.8 L151.3,139.5 L156.5,139.3 L161.9,139.2 L167.3,139.0 L172.7,138.8 L177.9,138.7 L183.4,138.6 L189.2,138.5 L194.5,138.3 L199.8,138.2 L205.3,138.0 L210.6,137.8 L221.1,137.5 L226.9,137.4 L232.3,137.2 L237.6,137.0 L243.1,136.9 L248.4,136.7 L253.5,136.6 L258.9,136.4 L265.0,136.2 L270.1,136.0 L275.6,135.9 L280.8,135.7 L286.2,135.5 L291.2,135.4 L296.8,135.3 L302.6,135.1 L307.7,134.9 L313.2,134.7 L318.7,134.5 L324.0,134.4 L329.1,134.4 L334.6,134.3 L340.6,134.1 L345.8,133.9 L351.1,133.8 L356.4,133.7 L361.8,133.6 L366.9,133.5 L372.4,133.4 L378.3,133.2 L383.2,133.0 L388.5,132.8 L393.9,132.6 L399.3,132.3 L404.5,132.1 L410.0,132.0 L415.8,131.8 L420.9,131.5 L426.3,131.4 L431.6,131.2 L437.0,131.0 L442.2,130.8 L447.7,130.8 L453.5,130.6 L458.6,130.4 L463.8,130.3 L469.4,130.1 L474.8,130.0 L479.8,129.9 L485.3,129.8 L490.9,129.7 L496.0,129.6 L501.4,129.4 L506.8,129.3 L512.2,129.1 L517.5,129.0 L523.0,128.9 L528.6,128.8 L533.8,128.6 L539.2,128.4 L544.6,128.3 L550.0,128.1" fill="none" stroke="#E91E63" stroke-width="2" stroke-linecap="round"/>
<rect x="562" y="114" width="12" height="12" rx="2" fill="#E91E63"/>
<text x="578" y="124" font-size="10" fill="#24292f">LlamaIndex</text>
<path d="M70.0,299.6 L75.6,299.5 L81.0,299.5 L86.3,299.4 L91.7,299.3 L97.1,299.2 L102.4,299.2 L107.8,299.1 L113.3,299.1 L118.6,299.0 L129.5,298.8 L134.7,298.8 L140.1,298.6 L145.6,298.6 L151.3,298.6 L156.5,298.3 L161.9,298.1 L167.3,298.0 L172.7,298.0 L177.9,297.9 L183.4,297.9 L189.2,297.8 L194.5,297.6 L199.8,297.5 L205.3,297.4 L210.6,297.3 L215.7,297.2 L221.1,297.2 L226.9,297.1 L232.3,297.0 L237.6,297.0 L243.1,296.9 L248.4,296.8 L253.5,296.8 L258.9,296.8 L265.0,296.7 L270.1,296.6 L275.6,296.6 L280.8,296.5 L286.2,296.5 L291.2,296.4 L296.8,296.4 L302.6,296.3 L307.7,296.2 L313.2,296.1 L318.7,296.0 L324.0,295.9 L329.1,295.8 L334.6,295.8 L340.6,295.8 L345.8,295.7 L351.1,295.6 L356.4,295.6 L361.8,295.5 L366.9,295.5 L372.4,295.5 L378.3,295.4 L383.2,295.3 L388.5,295.2 L393.9,294.8 L399.3,294.7 L404.5,294.6 L410.0,294.5 L415.8,294.4 L420.9,294.3 L426.3,294.3 L431.6,294.2 L437.0,294.1 L442.2,294.1 L447.7,294.1 L453.5,294.0 L458.6,294.0 L463.8,293.9 L469.4,293.9 L474.8,293.8 L479.8,293.8 L485.3,293.8 L490.9,293.7 L496.0,293.7 L501.4,293.6 L506.8,293.5 L512.2,293.4 L517.5,293.4 L523.0,293.3 L528.6,293.2 L533.8,293.2 L539.2,293.1 L544.6,293.0 L550.0,293.0" fill="none" stroke="#9C27B0" stroke-width="2" stroke-linecap="round"/>
<rect x="562" y="132" width="12" height="12" rx="2" fill="#9C27B0"/>
<text x="578" y="142" font-size="10" fill="#24292f">Haystack</text>
<path d="M70.0,354.5 L75.6,354.3 L81.0,354.2 L86.3,354.0 L91.7,353.8 L97.1,353.7 L102.4,353.5 L107.8,353.4 L113.3,353.3 L118.6,353.2 L129.5,352.9 L134.7,352.6 L140.1,352.5 L145.6,352.4 L151.3,352.2 L156.5,352.0 L161.9,351.9 L167.3,351.8 L172.7,351.7 L177.9,351.6 L183.4,351.5 L189.2,351.3 L194.5,351.2 L199.8,351.1 L205.3,351.0 L210.6,350.8 L215.7,350.7 L221.1,350.5 L226.9,350.3 L232.3,350.1 L237.6,349.9 L243.1,349.8 L248.4,349.7 L253.5,349.6 L258.9,349.5 L265.0,349.3 L270.1,349.1 L275.6,349.0 L280.8,348.8 L286.2,348.6 L291.2,348.5 L296.8,348.3 L302.6,348.1 L307.7,347.9 L313.2,347.7 L318.7,347.6 L324.0,347.4 L329.1,347.3 L334.6,347.2 L340.6,347.1 L345.8,347.0 L351.1,346.8 L356.4,346.7 L361.8,346.5 L366.9,346.5 L372.4,346.4 L378.3,346.2 L383.2,346.0 L388.5,345.8 L393.9,345.6 L399.3,345.5 L404.5,345.4 L410.0,345.3 L415.8,345.1 L420.9,344.9 L426.3,344.8 L431.6,344.6 L437.0,344.4 L442.2,344.3 L447.7,344.1 L453.5,344.0 L458.6,343.9 L463.8,343.8 L469.4,343.7 L474.8,343.5 L479.8,343.0 L485.3,342.7 L490.9,342.5 L496.0,342.2 L501.4,342.0 L506.8,341.9 L512.2,341.6 L517.5,341.4 L523.0,341.3 L528.6,341.2 L533.8,341.0 L539.2,340.8 L544.6,340.6 L550.0,340.4" fill="none" stroke="#00BCD4" stroke-width="2" stroke-linecap="round"/>
<rect x="562" y="150" width="12" height="12" rx="2" fill="#00BCD4"/>
<text x="578" y="160" font-size="10" fill="#24292f">PydanticAI</text>
<path d="M70.0,202.9 L75.6,202.8 L81.0,202.7 L86.3,202.3 L91.7,202.1 L97.1,201.9 L102.4,201.8 L107.8,201.6 L113.3,201.5 L118.6,201.4 L129.5,201.1 L134.7,200.9 L140.1,200.7 L145.6,200.6 L151.3,200.5 L156.5,200.3 L161.9,200.2 L167.3,200.1 L172.7,200.0 L177.9,199.9 L183.4,199.8 L189.2,199.7 L194.5,199.4 L199.8,199.2 L205.3,199.1 L210.6,198.9 L215.7,198.8 L221.1,198.7 L226.9,198.6 L232.3,198.5 L237.6,198.4 L243.1,198.2 L248.4,198.1 L253.5,198.1 L258.9,198.0 L265.0,197.9 L270.1,197.8 L275.6,197.6 L280.8,197.4 L286.2,197.3 L291.2,197.3 L296.8,197.2 L302.6,197.0 L307.7,196.9 L313.2,196.8 L318.7,196.6 L324.0,196.5 L329.1,196.4 L334.6,196.4 L340.6,196.3 L345.8,196.1 L351.1,195.9 L356.4,195.8 L361.8,195.8 L366.9,195.7 L372.4,195.7 L378.3,195.6 L383.2,195.5 L388.5,195.4 L393.9,195.3 L399.3,195.2 L404.5,195.2 L410.0,195.1 L415.8,195.0 L420.9,194.8 L426.3,194.7 L431.6,194.5 L437.0,194.4 L442.2,194.3 L447.7,194.3 L453.5,194.2 L458.6,194.1 L463.8,193.9 L469.4,193.8 L474.8,193.7 L479.8,193.7 L485.3,193.6 L490.9,193.4 L496.0,193.2 L501.4,193.1 L506.8,193.0 L512.2,192.9 L517.5,192.8 L523.0,192.4 L528.6,192.3 L533.8,192.1 L539.2,192.0 L544.6,191.8 L550.0,191.6" fill="none" stroke="#FF5722" stroke-width="2" stroke-linecap="round"/>
<rect x="562" y="168" width="12" height="12" rx="2" fill="#FF5722"/>
<text x="578" y="178" font-size="10" fill="#24292f">Agno</text>
<path d="M70.0,337.2 L75.6,337.0 L81.0,336.9 L86.3,336.7 L91.7,336.6 L97.1,336.5 L102.4,336.4 L107.8,336.3 L113.3,336.2 L118.6,336.1 L129.5,335.7 L134.7,335.5 L140.1,335.4 L145.6,335.4 L151.3,335.2 L156.5,335.1 L161.9,334.9 L167.3,334.9 L172.7,334.8 L177.9,334.7 L183.4,334.6 L189.2,334.5 L194.5,334.3 L199.8,334.1 L205.3,333.9 L210.6,333.8 L221.1,333.6 L226.9,333.5 L232.3,333.3 L237.6,333.2 L243.1,333.1 L248.4,333.0 L253.5,332.9 L258.9,332.9 L265.0,332.7 L270.1,332.7 L275.6,332.6 L280.8,332.5 L286.2,332.4 L291.2,332.4 L296.8,332.4 L302.6,332.3 L307.7,332.2 L313.2,332.1 L318.7,331.9 L324.0,331.9 L329.1,331.8 L334.6,331.7 L340.6,331.6 L345.8,331.5 L351.1,331.4 L356.4,331.3 L361.8,331.3 L366.9,331.2 L372.4,331.1 L378.3,330.9 L383.2,330.8 L388.5,330.6 L393.9,330.5 L399.3,330.4 L404.5,330.4 L410.0,330.3 L415.8,330.2 L420.9,330.1 L426.3,329.9 L431.6,329.8 L437.0,329.6 L442.2,329.5 L447.7,329.4 L453.5,329.2 L458.6,329.1 L463.8,329.0 L469.4,328.9 L474.8,328.8 L479.8,328.7 L485.3,328.7 L490.9,328.6 L496.0,328.5 L501.4,328.3 L506.8,328.3 L512.2,328.2 L517.5,328.1 L523.0,328.1 L528.6,327.3 L533.8,327.0 L539.2,326.9 L544.6,326.8 L550.0,326.7" fill="none" stroke="#795548" stroke-width="2" stroke-linecap="round"/>
<rect x="562" y="186" width="12" height="12" rx="2" fill="#795548"/>
<text x="578" y="196" font-size="10" fill="#24292f">Google ADK</text>
<path d="M70.0,310.5 L75.6,310.4 L81.0,310.2 L86.3,310.0 L91.7,309.8 L97.1,309.7 L102.4,309.5 L107.8,309.4 L113.3,309.1 L118.6,308.9 L129.5,308.5 L134.7,308.3 L140.1,308.0 L145.6,307.8 L151.3,307.6 L156.5,307.4 L161.9,307.2 L167.3,307.0 L172.7,306.7 L177.9,306.6 L183.4,306.4 L189.2,306.2 L194.5,305.9 L199.8,305.7 L205.3,305.1 L210.6,304.8 L215.7,304.6 L221.1,304.5 L226.9,304.2 L232.3,304.0 L237.6,303.6 L243.1,303.2 L248.4,302.7 L253.5,302.5 L258.9,302.3 L265.0,302.0 L270.1,301.7 L275.6,301.5 L280.8,301.2 L286.2,300.9 L291.2,300.7 L296.8,300.5 L302.6,300.3 L307.7,300.2 L313.2,300.0 L318.7,299.8 L324.0,299.6 L329.1,299.5 L334.6,299.2 L340.6,298.9 L345.8,298.7 L351.1,298.4 L356.4,298.2 L361.8,297.9 L366.9,297.8 L372.4,297.6 L378.3,297.4 L383.2,297.2 L388.5,296.8 L393.9,296.6 L399.3,296.4 L404.5,296.3 L410.0,296.1 L415.8,295.8 L420.9,295.5 L426.3,295.3 L431.6,294.9 L437.0,294.4 L442.2,294.3 L447.7,294.1 L453.5,293.9 L458.6,293.7 L463.8,293.4 L469.4,293.1 L474.8,292.8 L479.8,292.7 L485.3,292.5 L490.9,292.1 L496.0,292.0 L501.4,291.7 L506.8,291.6 L512.2,291.1 L517.5,290.9 L523.0,290.8 L528.6,290.6 L533.8,290.4 L539.2,290.1 L544.6,289.8 L550.0,289.5" fill="none" stroke="#607D8B" stroke-width="2" stroke-linecap="round"/>
<rect x="562" y="204" width="12" height="12" rx="2" fill="#607D8B"/>
<text x="578" y="214" font-size="10" fill="#24292f">Mastra</text>
<path d="M70.0,298.1 L75.6,297.1 L81.0,296.5 L86.3,296.0 L91.7,295.7 L97.1,295.2 L102.4,294.7 L107.8,294.3 L113.3,294.0 L118.6,293.7 L129.5,293.1 L134.7,292.6 L140.1,292.3 L145.6,292.1 L151.3,291.8 L156.5,291.5 L161.9,291.2 L167.3,291.0 L172.7,290.8 L177.9,290.7 L183.4,290.5 L189.2,290.1 L194.5,289.9 L199.8,289.7 L205.3,289.4 L210.6,289.2 L221.1,288.9 L226.9,288.8 L232.3,288.6 L237.6,288.4 L243.1,288.2 L248.4,288.1 L253.5,287.9 L258.9,287.8 L265.0,287.5 L270.1,287.3 L275.6,287.2 L280.8,287.0 L286.2,286.8 L291.2,286.7 L296.8,286.6 L302.6,286.4 L307.7,286.2 L313.2,286.0 L318.7,285.8 L324.0,285.7 L329.1,285.6 L334.6,285.5 L340.6,285.3 L345.8,285.1 L351.1,285.0 L356.4,284.8 L361.8,284.7 L366.9,284.5 L372.4,284.4 L378.3,284.2 L383.2,284.0 L388.5,283.8 L393.9,283.6 L399.3,283.5 L404.5,283.3 L410.0,283.2 L415.8,283.1 L420.9,282.9 L426.3,282.8 L431.6,282.5 L437.0,282.3 L442.2,282.2 L447.7,282.1 L453.5,281.8 L458.6,281.7 L463.8,281.5 L469.4,281.4 L474.8,281.2 L479.8,281.1 L485.3,280.9 L490.9,280.6 L496.0,280.5 L501.4,280.3 L506.8,280.2 L512.2,280.0 L517.5,279.9 L523.0,279.7 L528.6,279.5 L533.8,279.4 L539.2,279.3 L544.6,279.1 L550.0,278.9" fill="none" stroke="#CDDC39" stroke-width="2" stroke-linecap="round"/>
<rect x="562" y="222" width="12" height="12" rx="2" fill="#CDDC39"/>
<text x="578" y="232" font-size="10" fill="#24292f">OpenAI Agents SDK</text>
</svg>